<?xml version="1.0" encoding="UTF-8"?><svg id="a" xmlns="http://www.w3.org/2000/svg" viewBox="0 0 60 250"><defs><style>.b{fill:#fff;}.c{fill:#0c4128;}.d{fill:#6a1a21;}.e{fill:#222b42;}.f{fill:#233c76;}.g{fill:#514019;}.h{fill:none;}</style></defs><path class="h" d="m0,250h10v-10H0v10Z"/><path class="b" d="m5.83,248.33c-.09,0-.18-.03-.25-.08l-1.67-1.25c-.1-.08-.17-.2-.17-.33v-1.51l-1.97-2.17s-.03-.03-.04-.05c-.12-.19-.17-.41-.13-.63.04-.22.17-.41.35-.53.06-.04.12-.07.19-.09.04-.02.09-.02.14-.02h5.42s.09,0,.14.02c.21.07.38.22.48.43.1.2.11.43.03.64-.02.06-.05.13-.09.19-.01.02-.02.03-.04.05l-1.97,2.17v2.76c0,.16-.09.3-.23.37-.06.03-.12.04-.19.04Zm-1.25-1.88l.83.63v-2.08c0-.1.04-.2.11-.28l2.02-2.22H2.46l2.02,2.22c.07.08.11.18.11.28v1.46Z"/><path class="h" d="m0,220h10v10H0v-10Z"/><path class="b" d="m7.5,223.51v.25h-1.25c-.46,0-.83-.38-.83-.83v-1.25h.24l.59.59v.66h.66l.59.59Zm.76-.4s-.03-.04-.05-.06h0s.04.04.05.06Zm.07.23v4.58c0,.69-.56,1.25-1.25,1.25H2.92c-.69,0-1.25-.56-1.25-1.25v-5.83c0-.69.56-1.25,1.25-1.25h2.92c.11,0,.22.05.3.12l2.08,2.08s.04.04.05.06c.02.03.04.06.05.1.02.04.02.09.02.14Zm-.83.17l-.59-.59-.66-.66-.59-.59h-2.74c-.23,0-.42.19-.42.42v5.83c0,.23.19.42.42.42h4.17c.23,0,.42-.19.42-.42v-4.41Zm-2.92.24c0-.23-.19-.42-.42-.42h-.42c-.23,0-.42.19-.42.42s.19.42.42.42h.42c.23,0,.42-.19.42-.42Zm2.08,1.67c0-.23-.19-.42-.42-.42h-2.5c-.23,0-.42.19-.42.42s.19.42.42.42h2.5c.23,0,.42-.19.42-.42Zm0,1.67c0-.23-.19-.42-.42-.42h-2.5c-.23,0-.42.19-.42.42s.19.42.42.42h2.5c.23,0,.42-.19.42-.42Z"/><path class="h" d="m0,230h10v10H0v-10Z"/><path class="b" d="m7.5,239.17H2.5c-.69,0-1.25-.56-1.25-1.25v-.83c0-.23.19-.42.42-.42s.42.19.42.42v.83c0,.23.19.42.42.42h5c.23,0,.42-.19.42-.42v-.83c0-.23.19-.42.42-.42s.42.19.42.42v.83c0,.69-.56,1.25-1.25,1.25Zm-.12-4.88c-.16-.16-.43-.16-.59,0l-1.37,1.37v-3.99c0-.23-.19-.42-.42-.42s-.42.19-.42.42v4l-1.37-1.37c-.16-.16-.42-.16-.59,0-.16.16-.16.42,0,.59l2.08,2.08s.02.02.04.03c.05.04.11.07.17.08.03,0,.05,0,.08,0s.06,0,.08,0c.06-.01.12-.04.17-.08.01,0,.03-.02.04-.03l2.08-2.08c.16-.16.16-.43,0-.59Z"/><path class="h" d="m0,210h10v10H0v-10Z"/><path class="b" d="m5,219.17h0c-.53,0-.98-.35-1.1-.87-.02-.08-.07-.14-.14-.19-.07-.04-.15-.05-.23-.04-.03,0-.06.02-.09.04-.46.28-1.02.21-1.39-.17-.38-.38-.44-.94-.17-1.39.04-.07.05-.15.04-.23-.02-.08-.07-.14-.14-.19-.03-.02-.05-.03-.09-.03-.52-.13-.87-.57-.87-1.1s.35-.98.87-1.1c.08-.02.14-.07.19-.14.04-.07.05-.15.04-.23,0-.03-.02-.06-.04-.09-.28-.46-.21-1.02.17-1.39.38-.38.94-.44,1.39-.17.08.05.18.06.27.02.09-.04.15-.11.18-.21h0c.13-.52.57-.87,1.1-.87h0c.53,0,.98.35,1.1.87.02.08.07.15.14.19.07.04.15.05.23.04.03,0,.06-.02.09-.04.46-.28,1.02-.21,1.39.17s.44.94.17,1.39c-.09.14-.04.33.1.41.03.02.05.03.09.03.52.13.87.57.87,1.1s-.35.98-.87,1.1c-.08.02-.14.07-.19.14-.04.07-.05.15-.04.23,0,.03.02.06.04.09.28.46.21,1.02-.17,1.39-.38.38-.94.44-1.39.17-.07-.04-.15-.06-.23-.04-.08.02-.14.07-.19.14-.02.03-.03.06-.04.09-.13.52-.57.87-1.1.87Zm-1.39-1.93c.21,0,.41.06.59.17.26.16.44.41.51.7.05.21.24.23.29.23h0c.06,0,.24-.02.29-.23.03-.11.07-.22.13-.32.16-.26.41-.44.7-.51.3-.07.6-.02.86.13.19.11.33,0,.37-.04.04-.04.16-.18.04-.37-.06-.1-.11-.21-.13-.32-.07-.29-.02-.6.13-.86.16-.26.41-.44.7-.51.21-.05.23-.24.23-.29s-.02-.24-.23-.29c-.11-.03-.22-.07-.32-.13-.54-.33-.71-1.03-.38-1.56.11-.19,0-.33-.04-.37-.04-.04-.18-.16-.37-.04-.1.06-.21.11-.32.13-.29.07-.6.02-.86-.13-.26-.16-.44-.41-.51-.7-.05-.21-.24-.23-.29-.23-.06,0-.24.02-.29.23h0c-.09.36-.33.64-.67.78s-.71.11-1.02-.08c-.19-.11-.33,0-.37.04s-.16.18-.04.37c.06.1.11.21.13.32.07.29.02.6-.13.86s-.41.44-.7.51c-.21.05-.23.24-.23.29s.02.24.23.29c.11.03.22.07.32.13.26.16.44.41.51.7s.02.6-.13.86c-.11.19,0,.33.04.37.04.04.18.16.37.04.1-.06.21-.11.32-.13.09-.02.18-.03.27-.03Zm.7-5.44h0,0Zm.7,4.87c-.92,0-1.67-.75-1.67-1.67s.75-1.67,1.67-1.67,1.67.75,1.67,1.67-.75,1.67-1.67,1.67Zm0-2.5c-.46,0-.83.37-.83.83s.37.83.83.83.83-.37.83-.83-.37-.83-.83-.83Z"/><path class="h" d="m0,200h10v10H0v-10Z"/><path class="b" d="m5,200.83c-2.3,0-4.17,1.87-4.17,4.17,0,1.26.56,2.39,1.45,3.15.01.01.02.02.04.03.73.61,1.66.98,2.68.98s1.95-.37,2.67-.97c.02-.01.04-.03.05-.05.88-.76,1.44-1.89,1.44-3.15,0-2.3-1.87-4.17-4.17-4.17Zm0,7.5c-.72,0-1.38-.23-1.92-.61.08-.15.2-.29.34-.39.21-.16.47-.25.75-.25h1.67c.45,0,.87.25,1.09.64-.54.38-1.21.61-1.92.61Zm2.55-1.18c-.38-.55-1.02-.9-1.71-.9h-1.67c-.7,0-1.33.34-1.71.9-.49-.58-.79-1.33-.79-2.15,0-1.84,1.5-3.33,3.33-3.33s3.33,1.5,3.33,3.33c0,.82-.3,1.57-.79,2.15Zm-2.55-1.32c-.92,0-1.67-.75-1.67-1.67s.75-1.67,1.67-1.67,1.67.75,1.67,1.67-.75,1.67-1.67,1.67Zm0-2.5c-.46,0-.83.37-.83.83s.37.83.83.83.83-.37.83-.83-.37-.83-.83-.83Z"/><path class="h" d="m0,180h10v10H0v-10Z"/><path class="b" d="m5,188.77c-.16,0-.33-.01-.49-.03-.95-.12-1.81-.61-2.4-1.33v.93c0,.23-.19.42-.42.42s-.42-.19-.42-.42v-2.08c0-.23.19-.42.42-.42h.2s.01,0,.02,0h1.87c.23,0,.42.19.42.42s-.19.42-.42.42h-1.18c.46.67,1.2,1.13,2.03,1.24.77.1,1.54-.1,2.16-.58.62-.47,1.01-1.16,1.12-1.93s-.1-1.54-.58-2.16c-.47-.62-1.16-1.01-1.93-1.12-1.59-.21-3.06.92-3.27,2.51-.03.23-.24.39-.47.36-.23-.03-.39-.24-.36-.47.27-2.05,2.16-3.5,4.21-3.23.99.13,1.88.64,2.49,1.43.61.79.87,1.78.74,2.77s-.64,1.88-1.43,2.49c-.66.51-1.46.78-2.28.78Z"/><path class="h" d="m0,170h10v10H0v-10Z"/><path class="b" d="m8.33,175c-.2,0-.38-.15-.41-.36-.11-.78-.52-1.48-1.15-1.95-.63-.48-1.41-.68-2.19-.57-.81.11-1.54.56-2,1.22h.75c.23,0,.42.19.42.42s-.19.42-.42.42h-1.67c-.23,0-.42-.19-.42-.42v-1.67c0-.23.19-.42.42-.42s.42.19.42.42v.53c.6-.71,1.44-1.19,2.39-1.32,1-.14,2,.12,2.81.73.81.61,1.33,1.5,1.47,2.5.03.23-.13.44-.36.47-.02,0-.04,0-.06,0Zm-2.8,3.71c.94-.13,1.79-.61,2.39-1.32v.53c0,.23.19.42.42.42s.42-.19.42-.42v-1.67c0-.23-.19-.42-.42-.42h-.2s-.01,0-.02,0h-1.45c-.23,0-.42.19-.42.42s.19.42.42.42h.75c-.47.65-1.19,1.1-2,1.22-.78.11-1.56-.09-2.19-.57s-1.04-1.17-1.15-1.95c-.03-.23-.24-.39-.47-.36-.23.03-.39.24-.36.47.14,1,.66,1.89,1.47,2.5.67.5,1.46.77,2.28.77.18,0,.35-.01.53-.04Z"/><path class="h" d="m0,170h10v-10H0v10Z"/><path class="b" d="m9.04,168.46l-2.25-2.25c.44-.56.7-1.27.7-2.04,0-1.84-1.5-3.33-3.33-3.33s-3.33,1.5-3.33,3.33,1.5,3.33,3.33,3.33c.77,0,1.48-.26,2.04-.7l2.25,2.25c.08.08.19.12.29.12s.21-.04.3-.12c.16-.16.16-.43,0-.59Zm-4.88-1.79c-1.38,0-2.5-1.12-2.5-2.5s1.12-2.5,2.5-2.5,2.5,1.12,2.5,2.5-1.12,2.5-2.5,2.5Z"/><path class="h" d="m0,190h10v10H0v-10Z"/><path class="b" d="m9.04,194.7l-3.75-3.75c-.16-.16-.42-.16-.59,0l-3.75,3.75c-.12.12-.15.3-.09.45.07.16.22.26.39.26h.42v2.5c0,.69.56,1.25,1.25,1.25h4.17c.69,0,1.25-.56,1.25-1.25v-2.5h.42c.17,0,.32-.1.38-.26.07-.15.03-.33-.09-.45Zm-4.88,3.63v-2.08c0-.23.19-.42.42-.42h.83c.23,0,.42.19.42.42v2.08h-1.67Zm3.59-3.72s-.01,0-.02,0c-.02,0-.03.02-.05.02,0,0-.01,0-.02.01-.02.01-.04.03-.06.05-.02.02-.04.04-.05.06-.01.02-.02.04-.03.06,0,0,0,.01,0,.02,0,.02-.01.04-.02.06,0,.03,0,.05,0,.08v2.92c0,.23-.19.42-.42.42h-.42v-2.08c0-.69-.56-1.25-1.25-1.25h-.83c-.69,0-1.25.56-1.25,1.25v2.08h-.42c-.23,0-.42-.19-.42-.42v-2.92s0-.06,0-.08c0-.02-.01-.04-.02-.06,0,0,0-.02,0-.02,0-.02-.02-.03-.02-.05,0,0,0-.02-.02-.02-.01-.02-.03-.04-.05-.05-.02-.02-.04-.03-.06-.05,0,0,0,0-.02-.01-.02,0-.03-.02-.05-.02,0,0-.01,0-.02,0,0,0,0,0-.01,0l2.77-2.77,2.77,2.77s0,0-.01,0Z"/><path class="b" d="m5.02,158.65c-1.05,0-2.07-.46-2.78-1.3-1.3-1.54-1.1-3.84.43-5.14.98-.83,2.29-1.08,3.51-.67.22.07.34.31.26.53-.07.22-.31.34-.53.26-.94-.31-1.95-.12-2.71.52-1.18,1-1.33,2.78-.33,3.96.75.89,1.94,1.22,3.04.85.22-.07.45.04.53.26.07.22-.04.45-.26.53-.38.13-.78.19-1.17.19Zm3.72-3.73c-.02-.08-.05-.15-.11-.21l-1.47-1.47c-.16-.16-.42-.16-.59,0-.16.16-.16.42,0,.59l.76.76h-2.32c-.23,0-.42.19-.42.42s.19.42.42.42h2.32l-.76.76c-.16.16-.16.43,0,.59.08.08.19.12.3.12s.21-.04.29-.12l1.47-1.47c.06-.06.1-.13.11-.21,0-.03,0-.05,0-.08s0-.06,0-.08Z"/><rect class="h" x="0" y="150" width="10" height="10"/><path class="h" d="m0,100h10v10H0v-10Z"/><path class="b" d="m7.5,101.67h-.42v-.42c0-.23-.19-.42-.42-.42s-.42.19-.42.42v.42h-2.5v-.42c0-.23-.19-.42-.42-.42s-.42.19-.42.42v.42h-.42c-.69,0-1.25.56-1.25,1.25v5c0,.69.56,1.25,1.25,1.25h5c.69,0,1.25-.56,1.25-1.25v-5c0-.69-.56-1.25-1.25-1.25Zm.42,6.25c0,.23-.19.42-.42.42H2.5c-.23,0-.42-.19-.42-.42v-2.92h5.83v2.92Zm0-3.75H2.08v-1.25c0-.23.19-.42.42-.42h.42v.42c0,.23.19.42.42.42s.42-.19.42-.42v-.42h2.5v.42c0,.23.19.42.42.42s.42-.19.42-.42v-.42h.42c.23,0,.42.19.42.42v1.25Zm-3.75,3.33h-.83c-.23,0-.42-.19-.42-.42v-.83c0-.23.19-.42.42-.42h.83c.23,0,.42.19.42.42v.83c0,.23-.19.42-.42.42Z"/><path class="h" d="m0,150h10v-10H0v10Z"/><path class="b" d="m7.05,149.11H2.05c-.69,0-1.25-.56-1.25-1.25v-5c0-.69.56-1.25,1.25-1.25h2.68c.23,0,.42.19.42.42s-.19.42-.42.42h-2.68c-.23,0-.42.19-.42.42v5c0,.23.19.42.42.42h5c.23,0,.42-.19.42-.42v-2.55c0-.23.19-.42.42-.42s.42.19.42.42v2.55c0,.69-.56,1.25-1.25,1.25Zm2.14-6.62c-.02-.08-.06-.15-.11-.21h0s-1.27-1.27-1.27-1.27c-.16-.16-.43-.16-.59,0-.16.16-.16.43,0,.59l.56.56c-2.13.03-3.86,1.77-3.86,3.91,0,.23.19.42.42.42s.42-.19.42-.42c0-1.68,1.35-3.05,3.02-3.08l-.56.56c-.16.16-.16.42,0,.59.08.08.19.12.29.12s.21-.04.3-.12l1.27-1.27h0c.06-.06.1-.13.11-.21,0-.03,0-.05,0-.08s0-.06,0-.08Z"/><path class="h" d="m0,140h10v-10H0v10Z"/><path class="b" d="m8.32,133.75c-.23,0-.42-.19-.42-.42v-1.25h-1.25c-.23,0-.42-.19-.42-.42s.19-.42.42-.42h1.67c.23,0,.42.19.42.42v1.67c0,.23-.19.42-.42.42Zm-4.19,2.78l3.32-3.32c.16-.16.16-.43,0-.59s-.43-.16-.59,0l-3.32,3.32c-.16.16-.16.43,0,.59.08.08.19.12.29.12s.21-.04.29-.12Zm4.62.97v-1.72c0-.23-.19-.42-.42-.42s-.42.19-.42.42v1.72c0,.23-.19.42-.42.42H2.5c-.23,0-.42-.19-.42-.42v-5c0-.23.19-.42.42-.42h1.85c.23,0,.42-.19.42-.42s-.19-.42-.42-.42h-1.85c-.69,0-1.25.56-1.25,1.25v5c0,.69.56,1.25,1.25,1.25h5c.69,0,1.25-.56,1.25-1.25Z"/><path class="h" d="m10,120H0s0,10,0,10h10s0-10,0-10Z"/><path class="b" d="m4.68,126.25c-.11,0-.21-.04-.29-.12-.16-.16-.16-.43,0-.59l.54-.54-.54-.54c-.16-.16-.16-.43,0-.59s.43-.16.59,0l.83.83c.16.16.16.43,0,.59l-.83.83c-.08.08-.19.12-.29.12Zm4.48-1.25c0-2.3-1.87-4.17-4.17-4.17s-4.17,1.87-4.17,4.17,1.87,4.17,4.17,4.17,4.17-1.87,4.17-4.17Zm-.83,0c0,1.84-1.5,3.33-3.33,3.33s-3.33-1.5-3.33-3.33,1.5-3.33,3.33-3.33,3.33,1.5,3.33,3.33Z"/><path class="h" d="m0,120h10v-10H0v10Z"/><path class="b" d="m5.32,116.25c-.11,0-.21-.04-.29-.12l-.83-.83c-.16-.16-.16-.43,0-.59l.83-.83c.16-.16.43-.16.59,0s.16.43,0,.59l-.54.54.54.54c.16.16.16.43,0,.59-.08.08-.19.12-.29.12Zm3.85-1.25c0-2.3-1.87-4.17-4.17-4.17s-4.17,1.87-4.17,4.17,1.87,4.17,4.17,4.17,4.17-1.87,4.17-4.17Zm-.83,0c0,1.84-1.5,3.33-3.33,3.33s-3.33-1.5-3.33-3.33,1.5-3.33,3.33-3.33,3.33,1.5,3.33,3.33Z"/><path class="h" d="m0,90h10v10H0v-10Z"/><path class="b" d="m5,98.75c-1.84,0-3.33-1.5-3.33-3.33s1.5-3.33,3.33-3.33,3.33,1.5,3.33,3.33-1.5,3.33-3.33,3.33Zm0-5.83c-1.38,0-2.5,1.12-2.5,2.5s1.12,2.5,2.5,2.5,2.5-1.12,2.5-2.5-1.12-2.5-2.5-2.5Zm1.25,2.5c0-.23-.19-.42-.42-.42h-.42v-.83c0-.23-.19-.42-.42-.42s-.42.19-.42.42v1.25c0,.23.19.42.42.42h.83c.23,0,.42-.19.42-.42Zm-4.23-2.58l1.15-.83c.19-.14.23-.4.09-.58-.14-.19-.4-.23-.58-.09l-1.15.83c-.19.14-.23.4-.09.58.08.11.21.17.34.17.08,0,.17-.03.24-.08Zm6.55-.09c.14-.19.09-.45-.09-.58l-1.15-.83c-.19-.14-.45-.09-.58.09-.14.19-.09.45.09.58l1.15.83c.07.05.16.08.24.08.13,0,.26-.06.34-.17Z"/><path class="h" d="m0,80h10v10H0v-10Z"/><path class="b" d="m8.54,86.72c-.34-.19-.57-.53-.62-.92v-1.24c-.05-1.15-.7-2.19-1.7-2.75-.12-.56-.62-.98-1.22-.98s-1.1.42-1.22.98c-1,.56-1.64,1.6-1.7,2.77v1.23c-.05.38-.29.72-.62.91-.17.09-.25.29-.2.47.05.18.21.31.4.31h1.67c0,.92.75,1.67,1.67,1.67s1.67-.75,1.67-1.67h1.67c.19,0,.36-.13.4-.31.05-.18-.03-.38-.2-.47Zm-3.54,1.61c-.46,0-.83-.37-.83-.83h1.67c0,.46-.37.83-.83.83Zm-2.35-1.67c.14-.24.23-.5.26-.78,0-.02,0-.03,0-.05v-1.23c.04-.93.59-1.75,1.43-2.14.15-.07.24-.22.24-.38,0-.23.19-.42.42-.42s.42.19.42.42c0,.16.09.31.24.38.84.4,1.39,1.22,1.43,2.12v1.25s0,.03,0,.05c.03.28.12.54.26.78H2.65Zm6.1-3.45c-.16,0-.31-.09-.38-.24-.25-.54-.61-1.02-1.06-1.41-.17-.15-.19-.41-.04-.59.15-.17.41-.19.59-.04.54.47.97,1.04,1.27,1.69.1.21,0,.46-.21.55-.06.03-.12.04-.17.04Zm-7.5,0c-.06,0-.12-.01-.17-.04-.21-.1-.3-.34-.2-.55.3-.65.73-1.22,1.27-1.69.17-.15.44-.13.59.04.15.17.13.44-.04.59-.45.39-.81.87-1.06,1.41-.07.15-.22.24-.38.24Z"/><path class="h" d="m0,70h10v10H0v-10Z"/><path class="b" d="m8.33,72.5h-1.67v-.83c0-.46-.37-.83-.83-.83h-1.67c-.46,0-.83.37-.83.83v.83h-1.67c-.23,0-.42.19-.42.42s.19.42.42.42h.03l.38,4.58c0,.69.56,1.25,1.25,1.25h3.33c.69,0,1.25-.56,1.25-1.22l.39-4.62h.03c.23,0,.42-.19.42-.42s-.19-.42-.42-.42Zm-4.17-.83h1.67v.83h-1.67v-.83Zm2.92,6.25c0,.23-.19.42-.42.42h-3.33c-.23,0-.42-.19-.42-.45l-.38-4.55h4.93l-.38,4.58Zm-2.92-.42c-.23,0-.42-.19-.42-.42v-2.5c0-.23.19-.42.42-.42s.42.19.42.42v2.5c0,.23-.19.42-.42.42Zm1.67,0c-.23,0-.42-.19-.42-.42v-2.5c0-.23.19-.42.42-.42s.42.19.42.42v2.5c0,.23-.19.42-.42.42Z"/><path class="h" d="m0,60h10v10H0v-10Z"/><path class="b" d="m6.25,68.75h-3.75c-.69,0-1.25-.56-1.25-1.25v-3.75c0-.69.56-1.25,1.25-1.25h.42c.23,0,.42.19.42.42s-.19.42-.42.42h-.42c-.23,0-.42.19-.42.42v3.75c0,.23.19.42.42.42h3.75c.23,0,.42-.19.42-.42v-.42c0-.23.19-.42.42-.42s.42.19.42.42v.42c0,.69-.56,1.25-1.25,1.25Zm2.92-6.62c0,.34-.13.67-.38.91l-.52.52-.12.12h0l-2.85,2.86c-.08.08-.18.12-.3.12h-1.25c-.23,0-.42-.19-.42-.42v-1.25c0-.11.04-.22.12-.3l2.86-2.85s0,0,0,0l.12-.12.52-.52c.49-.49,1.34-.49,1.82,0,.25.24.38.57.38.91Zm-1.84,1.2l-.65-.65-2.5,2.5v.66h.66l2.5-2.5Zm1.01-1.2c0-.12-.05-.24-.13-.32-.17-.17-.48-.17-.65,0l-.29.29.65.65.29-.29h0c.09-.09.13-.2.13-.32Zm-1.96-.34s-.04.04-.05.06l.12-.12s-.05.03-.07.05Zm1.77,1.89s.04-.03.06-.05c.02-.02.04-.04.05-.07l-.12.12Z"/><path class="h" d="m0,50h10v10H0v-10Z"/><path class="b" d="m5,50.83c-2.3,0-4.17,1.87-4.17,4.17s1.87,4.17,4.17,4.17,4.17-1.87,4.17-4.17-1.87-4.17-4.17-4.17Zm0,7.5c-1.84,0-3.33-1.5-3.33-3.33s1.5-3.33,3.33-3.33,3.33,1.5,3.33,3.33-1.5,3.33-3.33,3.33Zm1.67-3.33c0,.23-.19.42-.42.42h-.83v.83c0,.23-.19.42-.42.42s-.42-.19-.42-.42v-.83h-.83c-.23,0-.42-.19-.42-.42s.19-.42.42-.42h.83v-.83c0-.23.19-.42.42-.42s.42.19.42.42v.83h.83c.23,0,.42.19.42.42Z"/><path class="h" d="m0,0h10v10H0V0Z"/><path class="b" d="m5,9.17c-2.3,0-4.17-1.87-4.17-4.17S2.7.83,5,.83s4.17,1.87,4.17,4.17-1.87,4.17-4.17,4.17Zm0-7.5c-1.84,0-3.33,1.5-3.33,3.33s1.5,3.33,3.33,3.33,3.33-1.5,3.33-3.33-1.5-3.33-3.33-3.33Zm.42,3.33v-1.67c0-.23-.19-.42-.42-.42s-.42.19-.42.42v1.67c0,.23.19.42.42.42s.42-.19.42-.42Zm0,1.67c0-.23-.19-.42-.42-.42h0c-.23,0-.41.19-.41.42s.19.42.42.42.42-.19.42-.42Z"/><path class="h" d="m0,50h10v-10H0v10Z"/><path class="b" d="m6.88,41.28c-1.17-.59-2.58-.59-3.75,0-.21.1-.29.35-.18.56.1.2.35.29.56.18.94-.47,2.06-.47,3,0,1.64.83,2.3,2.84,1.48,4.48-.1.21-.02.46.18.56.06.03.12.05.19.05.15,0,.3-.08.37-.23,1.03-2.05.2-4.56-1.85-5.6Zm1.07,6.67h0s.02-.03.03-.04c0,.01-.02.03-.03.04Zm.1-.42s0-.02-.01-.03c0-.01-.01-.03-.02-.04,0-.01-.01-.02-.02-.04-.01-.02-.03-.04-.05-.06h0s-5.28-5.29-5.28-5.29c0,0,0,0-.01,0,0,0,0,0,0,0-.16-.17-.42-.17-.59,0-.79.78-1.24,1.82-1.25,2.94,0,1.11.42,2.16,1.2,2.96.82.83,1.89,1.24,2.97,1.24s2.11-.4,2.92-1.19l.05-.05s.02-.03.03-.04c.02-.03.04-.06.06-.1,0-.02.01-.04.02-.05,0-.03.01-.07.01-.1,0-.04,0-.08-.02-.12Zm-5.45-.17c-.62-.63-.96-1.47-.96-2.37,0-.75.26-1.46.72-2.04l4.68,4.68c-1.32,1.04-3.24.95-4.45-.28Z"/><path class="h" d="m0,40h10v-10H0v10Z"/><path class="b" d="m5,39.17c-2.3,0-4.17-1.87-4.17-4.17s1.87-4.17,4.17-4.17,4.17,1.87,4.17,4.17-1.87,4.17-4.17,4.17Zm0-7.5c-1.84,0-3.33,1.5-3.33,3.33s1.5,3.33,3.33,3.33,3.33-1.5,3.33-3.33-1.5-3.33-3.33-3.33Zm-.12,4.46l1.67-1.67c.16-.16.16-.43,0-.59s-.43-.16-.59,0l-1.37,1.37-.54-.54c-.16-.16-.43-.16-.59,0s-.16.43,0,.59l.83.83c.08.08.19.12.29.12s.21-.04.29-.12Z"/><path class="h" d="m0,20h10v10H0v-10Z"/><path class="b" d="m5,29.17c-2.3,0-4.17-1.87-4.17-4.17s1.87-4.17,4.17-4.17,4.17,1.87,4.17,4.17-1.87,4.17-4.17,4.17Zm0-7.5c-1.84,0-3.33,1.5-3.33,3.33s1.5,3.33,3.33,3.33,3.33-1.5,3.33-3.33-1.5-3.33-3.33-3.33Zm1.13,4.46c.16-.16.16-.43,0-.59l-.54-.54.54-.54c.16-.16.16-.43,0-.59s-.43-.16-.59,0l-.54.54-.54-.54c-.16-.16-.43-.16-.59,0s-.16.43,0,.59l.54.54-.54.54c-.16.16-.16.43,0,.59s.43.16.59,0l.54-.54.54.54c.08.08.19.12.29.12s.21-.04.29-.12Z"/><path class="h" d="m0,10h10v10H0v-10Z"/><path class="b" d="m5,19.17c-2.3,0-4.17-1.87-4.17-4.17s1.87-4.17,4.17-4.17,4.17,1.87,4.17,4.17-1.87,4.17-4.17,4.17Zm0-7.5c-1.84,0-3.33,1.5-3.33,3.33s1.5,3.33,3.33,3.33,3.33-1.5,3.33-3.33-1.5-3.33-3.33-3.33Zm.42,5.42h0c0-.23-.19-.42-.42-.42s-.42.19-.42.42.19.42.42.42.42-.19.42-.42Zm-.39-1.05c.23-.01.41-.21.39-.44,0-.09.05-.18.15-.21.77-.3,1.16-1.16.87-1.94-.14-.37-.42-.67-.79-.83-.37-.16-.77-.17-1.15-.03-.26.1-.49.27-.66.49-.14.18-.1.44.08.58.18.14.44.1.58-.08.08-.1.18-.17.29-.22.17-.06.35-.06.51.01.16.07.29.2.35.37.13.34-.04.73-.37.86-.43.15-.72.58-.69,1.04.01.22.2.39.42.39,0,0,.02,0,.02,0Z"/><path class="h" d="m10,250h10v-10h-10v10Z"/><path class="e" d="m15.83,248.33c-.09,0-.18-.03-.25-.08l-1.67-1.25c-.1-.08-.17-.2-.17-.33v-1.51l-1.97-2.17s-.03-.03-.04-.05c-.12-.19-.17-.41-.13-.63.04-.22.17-.41.35-.53.06-.04.12-.07.19-.09.04-.02.09-.02.14-.02h5.42s.09,0,.14.02c.21.07.38.22.48.43.1.2.11.43.03.64-.02.06-.05.13-.09.19-.01.02-.02.03-.04.05l-1.97,2.17v2.76c0,.16-.09.3-.23.37-.06.03-.12.04-.19.04Zm-1.25-1.88l.83.63v-2.08c0-.1.04-.2.11-.28l2.02-2.22h-5.09l2.02,2.22c.07.08.11.18.11.28v1.46Z"/><path class="h" d="m10,220h10v10h-10v-10Z"/><path class="e" d="m17.5,223.51v.25h-1.25c-.46,0-.83-.38-.83-.83v-1.25h.24l.59.59v.66h.66l.59.59Zm.76-.4s-.03-.04-.05-.06h0s.04.04.05.06Zm.07.23v4.58c0,.69-.56,1.25-1.25,1.25h-4.17c-.69,0-1.25-.56-1.25-1.25v-5.83c0-.69.56-1.25,1.25-1.25h2.92c.11,0,.22.05.3.12l2.08,2.08s.04.04.05.06c.02.03.04.06.05.1.02.04.02.09.02.14Zm-.83.17l-.59-.59-.66-.66-.59-.59h-2.74c-.23,0-.42.19-.42.42v5.83c0,.23.19.42.42.42h4.17c.23,0,.42-.19.42-.42v-4.41Zm-2.92.24c0-.23-.19-.42-.42-.42h-.42c-.23,0-.42.19-.42.42s.19.42.42.42h.42c.23,0,.42-.19.42-.42Zm2.08,1.67c0-.23-.19-.42-.42-.42h-2.5c-.23,0-.42.19-.42.42s.19.42.42.42h2.5c.23,0,.42-.19.42-.42Zm0,1.67c0-.23-.19-.42-.42-.42h-2.5c-.23,0-.42.19-.42.42s.19.42.42.42h2.5c.23,0,.42-.19.42-.42Z"/><path class="h" d="m10,230h10v10h-10v-10Z"/><path class="e" d="m17.5,239.17h-5c-.69,0-1.25-.56-1.25-1.25v-.83c0-.23.19-.42.42-.42s.42.19.42.42v.83c0,.23.19.42.42.42h5c.23,0,.42-.19.42-.42v-.83c0-.23.19-.42.42-.42s.42.19.42.42v.83c0,.69-.56,1.25-1.25,1.25Zm-.12-4.88c-.16-.16-.43-.16-.59,0l-1.37,1.37v-3.99c0-.23-.19-.42-.42-.42s-.42.19-.42.42v4l-1.37-1.37c-.16-.16-.42-.16-.59,0-.16.16-.16.42,0,.59l2.08,2.08s.02.02.04.03c.05.04.11.07.17.08.03,0,.05,0,.08,0s.06,0,.08,0c.06-.01.12-.04.17-.08.01,0,.03-.02.04-.03l2.08-2.08c.16-.16.16-.43,0-.59Z"/><path class="h" d="m10,210h10v10h-10v-10Z"/><path class="e" d="m15,219.17h0c-.53,0-.98-.35-1.1-.87-.02-.08-.07-.14-.14-.19-.07-.04-.15-.05-.23-.04-.03,0-.06.02-.09.04-.46.28-1.02.21-1.39-.17-.38-.38-.44-.94-.17-1.39.04-.07.05-.15.04-.23-.02-.08-.07-.14-.14-.19-.03-.02-.05-.03-.09-.03-.52-.13-.87-.57-.87-1.1s.35-.98.87-1.1c.08-.02.14-.07.19-.14.04-.07.05-.15.04-.23,0-.03-.02-.06-.04-.09-.28-.46-.21-1.02.17-1.39.38-.38.94-.44,1.39-.17.08.05.18.06.27.02.09-.04.15-.11.18-.21h0c.13-.52.57-.87,1.1-.87h0c.53,0,.98.35,1.1.87.02.08.07.15.14.19.07.04.15.05.23.04.03,0,.06-.02.09-.04.46-.28,1.02-.21,1.39.17s.44.94.17,1.39c-.09.14-.04.33.1.41.03.02.05.03.09.03.52.13.87.57.87,1.1s-.35.98-.87,1.1c-.08.02-.14.07-.19.14-.04.07-.05.15-.04.23,0,.03.02.06.04.09.28.46.21,1.02-.17,1.39-.38.38-.94.44-1.39.17-.07-.04-.15-.06-.23-.04-.08.02-.14.07-.19.14-.02.03-.03.06-.04.09-.13.52-.57.87-1.1.87Zm-1.39-1.93c.21,0,.41.06.59.17.26.16.44.41.51.7.05.21.24.23.29.23h0c.06,0,.24-.02.29-.23.03-.11.07-.22.13-.32.16-.26.41-.44.7-.51.3-.07.6-.02.86.13.19.11.33,0,.37-.04.04-.04.16-.18.04-.37-.06-.1-.11-.21-.13-.32-.07-.29-.02-.6.13-.86.16-.26.41-.44.7-.51.21-.05.23-.24.23-.29s-.02-.24-.23-.29c-.11-.03-.22-.07-.32-.13-.54-.33-.71-1.03-.38-1.56.11-.19,0-.33-.04-.37-.04-.04-.18-.16-.37-.04-.1.06-.21.11-.32.13-.29.07-.6.02-.86-.13-.26-.16-.44-.41-.51-.7-.05-.21-.24-.23-.29-.23-.06,0-.24.02-.29.23h0c-.09.36-.33.64-.67.78s-.71.11-1.02-.08c-.19-.11-.33,0-.37.04s-.16.18-.04.37c.06.1.11.21.13.32.07.29.02.6-.13.86s-.41.44-.7.51c-.21.05-.23.24-.23.29s.02.24.23.29c.11.03.22.07.32.13.26.16.44.41.51.7s.02.6-.13.86c-.11.19,0,.33.04.37.04.04.18.16.37.04.1-.06.21-.11.32-.13.09-.02.18-.03.27-.03Zm.7-5.44h0,0Zm.7,4.87c-.92,0-1.67-.75-1.67-1.67s.75-1.67,1.67-1.67,1.67.75,1.67,1.67-.75,1.67-1.67,1.67Zm0-2.5c-.46,0-.83.37-.83.83s.37.83.83.83.83-.37.83-.83-.37-.83-.83-.83Z"/><path class="h" d="m10,200h10v10h-10v-10Z"/><path class="e" d="m15,200.83c-2.3,0-4.17,1.87-4.17,4.17,0,1.26.56,2.39,1.45,3.15.01.01.02.02.04.03.73.61,1.66.98,2.68.98s1.95-.37,2.67-.97c.02-.01.04-.03.05-.05.88-.76,1.44-1.89,1.44-3.15,0-2.3-1.87-4.17-4.17-4.17Zm0,7.5c-.72,0-1.38-.23-1.92-.61.08-.15.2-.29.34-.39.21-.16.47-.25.75-.25h1.67c.45,0,.87.25,1.09.64-.54.38-1.21.61-1.92.61Zm2.55-1.18c-.38-.55-1.02-.9-1.71-.9h-1.67c-.7,0-1.33.34-1.71.9-.49-.58-.79-1.33-.79-2.15,0-1.84,1.5-3.33,3.33-3.33s3.33,1.5,3.33,3.33c0,.82-.3,1.57-.79,2.15Zm-2.55-1.32c-.92,0-1.67-.75-1.67-1.67s.75-1.67,1.67-1.67,1.67.75,1.67,1.67-.75,1.67-1.67,1.67Zm0-2.5c-.46,0-.83.37-.83.83s.37.83.83.83.83-.37.83-.83-.37-.83-.83-.83Z"/><path class="h" d="m10,180h10v10h-10v-10Z"/><path class="e" d="m15,188.77c-.16,0-.33-.01-.49-.03-.95-.12-1.81-.61-2.4-1.33v.93c0,.23-.19.42-.42.42s-.42-.19-.42-.42v-2.08c0-.23.19-.42.42-.42h.2s.01,0,.02,0h1.87c.23,0,.42.19.42.42s-.19.42-.42.42h-1.18c.46.67,1.2,1.13,2.03,1.24.77.1,1.54-.1,2.16-.58.62-.47,1.01-1.16,1.12-1.93s-.1-1.54-.58-2.16c-.47-.62-1.16-1.01-1.93-1.12-1.59-.21-3.06.92-3.27,2.51-.03.23-.24.39-.47.36-.23-.03-.39-.24-.36-.47.27-2.05,2.16-3.5,4.21-3.23.99.13,1.88.64,2.49,1.43.61.79.87,1.78.74,2.77s-.64,1.88-1.43,2.49c-.66.51-1.46.78-2.28.78Z"/><path class="h" d="m10,170h10v10h-10v-10Z"/><path class="e" d="m18.33,175c-.2,0-.38-.15-.41-.36-.11-.78-.52-1.48-1.15-1.95-.63-.48-1.41-.68-2.19-.57-.81.11-1.54.56-2,1.22h.75c.23,0,.42.19.42.42s-.19.42-.42.42h-1.67c-.23,0-.42-.19-.42-.42v-1.67c0-.23.19-.42.42-.42s.42.19.42.42v.53c.6-.71,1.44-1.19,2.39-1.32,1-.14,2,.12,2.81.73.81.61,1.33,1.5,1.47,2.5.03.23-.13.44-.36.47-.02,0-.04,0-.06,0Zm-2.8,3.71c.94-.13,1.79-.61,2.39-1.32v.53c0,.23.19.42.42.42s.42-.19.42-.42v-1.67c0-.23-.19-.42-.42-.42h-.2s-.01,0-.02,0h-1.45c-.23,0-.42.19-.42.42s.19.42.42.42h.75c-.47.65-1.19,1.1-2,1.22-.78.11-1.56-.09-2.19-.57s-1.04-1.17-1.15-1.95c-.03-.23-.24-.39-.47-.36-.23.03-.39.24-.36.47.14,1,.66,1.89,1.47,2.5.67.5,1.46.77,2.28.77.18,0,.35-.01.53-.04Z"/><path class="h" d="m10,170h10v-10h-10v10Z"/><path class="e" d="m19.04,168.46l-2.25-2.25c.44-.56.7-1.27.7-2.04,0-1.84-1.5-3.33-3.33-3.33s-3.33,1.5-3.33,3.33,1.5,3.33,3.33,3.33c.77,0,1.48-.26,2.04-.7l2.25,2.25c.08.08.19.12.29.12s.21-.04.3-.12c.16-.16.16-.43,0-.59Zm-4.88-1.79c-1.38,0-2.5-1.12-2.5-2.5s1.12-2.5,2.5-2.5,2.5,1.12,2.5,2.5-1.12,2.5-2.5,2.5Z"/><path class="h" d="m10,190h10v10h-10v-10Z"/><path class="e" d="m19.04,194.7l-3.75-3.75c-.16-.16-.42-.16-.59,0l-3.75,3.75c-.12.12-.15.3-.09.45.07.16.22.26.39.26h.42v2.5c0,.69.56,1.25,1.25,1.25h4.17c.69,0,1.25-.56,1.25-1.25v-2.5h.42c.17,0,.32-.1.38-.26.07-.15.03-.33-.09-.45Zm-4.88,3.63v-2.08c0-.23.19-.42.42-.42h.83c.23,0,.42.19.42.42v2.08h-1.67Zm3.59-3.72s-.01,0-.02,0c-.02,0-.03.02-.05.02,0,0-.01,0-.02.01-.02.01-.04.03-.06.05-.02.02-.04.04-.05.06-.01.02-.02.04-.03.06,0,0,0,.01,0,.02,0,.02-.01.04-.02.06,0,.03,0,.05,0,.08v2.92c0,.23-.19.42-.42.42h-.42v-2.08c0-.69-.56-1.25-1.25-1.25h-.83c-.69,0-1.25.56-1.25,1.25v2.08h-.42c-.23,0-.42-.19-.42-.42v-2.92s0-.06,0-.08c0-.02-.01-.04-.02-.06,0,0,0-.02,0-.02,0-.02-.02-.03-.02-.05,0,0,0-.02-.02-.02-.01-.02-.03-.04-.05-.05-.02-.02-.04-.03-.06-.05,0,0,0,0-.02-.01-.02,0-.03-.02-.05-.02,0,0-.01,0-.02,0,0,0,0,0-.01,0l2.77-2.77,2.77,2.77s0,0-.01,0Z"/><path class="e" d="m15.02,158.65c-1.05,0-2.07-.46-2.78-1.3-1.3-1.54-1.1-3.84.43-5.14.98-.83,2.29-1.08,3.51-.67.22.07.34.31.26.53-.07.22-.31.34-.53.26-.94-.31-1.95-.12-2.71.52-1.18,1-1.33,2.78-.33,3.96.75.89,1.94,1.22,3.04.85.22-.07.45.04.53.26.07.22-.04.45-.26.53-.38.13-.78.19-1.17.19Zm3.72-3.73c-.02-.08-.05-.15-.11-.21l-1.47-1.47c-.16-.16-.42-.16-.59,0-.16.16-.16.42,0,.59l.76.76h-2.32c-.23,0-.42.19-.42.42s.19.42.42.42h2.32l-.76.76c-.16.16-.16.43,0,.59.08.08.19.12.3.12s.21-.04.29-.12l1.47-1.47c.06-.06.1-.13.11-.21,0-.03,0-.05,0-.08s0-.06,0-.08Z"/><rect class="h" x="10" y="150" width="10" height="10"/><path class="h" d="m10,100h10v10h-10v-10Z"/><path class="e" d="m17.5,101.67h-.42v-.42c0-.23-.19-.42-.42-.42s-.42.19-.42.42v.42h-2.5v-.42c0-.23-.19-.42-.42-.42s-.42.19-.42.42v.42h-.42c-.69,0-1.25.56-1.25,1.25v5c0,.69.56,1.25,1.25,1.25h5c.69,0,1.25-.56,1.25-1.25v-5c0-.69-.56-1.25-1.25-1.25Zm.42,6.25c0,.23-.19.42-.42.42h-5c-.23,0-.42-.19-.42-.42v-2.92h5.83v2.92Zm0-3.75h-5.83v-1.25c0-.23.19-.42.42-.42h.42v.42c0,.23.19.42.42.42s.42-.19.42-.42v-.42h2.5v.42c0,.23.19.42.42.42s.42-.19.42-.42v-.42h.42c.23,0,.42.19.42.42v1.25Zm-3.75,3.33h-.83c-.23,0-.42-.19-.42-.42v-.83c0-.23.19-.42.42-.42h.83c.23,0,.42.19.42.42v.83c0,.23-.19.42-.42.42Z"/><path class="h" d="m10,150h10v-10h-10v10Z"/><path class="e" d="m17.05,149.11h-5c-.69,0-1.25-.56-1.25-1.25v-5c0-.69.56-1.25,1.25-1.25h2.68c.23,0,.42.19.42.42s-.19.42-.42.42h-2.68c-.23,0-.42.19-.42.42v5c0,.23.19.42.42.42h5c.23,0,.42-.19.42-.42v-2.55c0-.23.19-.42.42-.42s.42.19.42.42v2.55c0,.69-.56,1.25-1.25,1.25Zm2.14-6.62c-.02-.08-.06-.15-.11-.21h0s-1.27-1.27-1.27-1.27c-.16-.16-.43-.16-.59,0-.16.16-.16.43,0,.59l.56.56c-2.13.03-3.86,1.77-3.86,3.91,0,.23.19.42.42.42s.42-.19.42-.42c0-1.68,1.35-3.05,3.02-3.08l-.56.56c-.16.16-.16.42,0,.59.08.08.19.12.29.12s.21-.04.3-.12l1.27-1.27h0c.06-.06.1-.13.11-.21,0-.03,0-.05,0-.08s0-.06,0-.08Z"/><path class="h" d="m10,140h10v-10h-10v10Z"/><path class="e" d="m18.32,133.75c-.23,0-.42-.19-.42-.42v-1.25h-1.25c-.23,0-.42-.19-.42-.42s.19-.42.42-.42h1.67c.23,0,.42.19.42.42v1.67c0,.23-.19.42-.42.42Zm-4.19,2.78l3.32-3.32c.16-.16.16-.43,0-.59s-.43-.16-.59,0l-3.32,3.32c-.16.16-.16.43,0,.59.08.08.19.12.29.12s.21-.04.29-.12Zm4.62.97v-1.72c0-.23-.19-.42-.42-.42s-.42.19-.42.42v1.72c0,.23-.19.42-.42.42h-5c-.23,0-.42-.19-.42-.42v-5c0-.23.19-.42.42-.42h1.85c.23,0,.42-.19.42-.42s-.19-.42-.42-.42h-1.85c-.69,0-1.25.56-1.25,1.25v5c0,.69.56,1.25,1.25,1.25h5c.69,0,1.25-.56,1.25-1.25Z"/><path class="h" d="m20,120h-10s0,10,0,10h10s0-10,0-10Z"/><path class="e" d="m14.68,126.25c-.11,0-.21-.04-.29-.12-.16-.16-.16-.43,0-.59l.54-.54-.54-.54c-.16-.16-.16-.43,0-.59s.43-.16.59,0l.83.83c.16.16.16.43,0,.59l-.83.83c-.08.08-.19.12-.29.12Zm4.48-1.25c0-2.3-1.87-4.17-4.17-4.17s-4.17,1.87-4.17,4.17,1.87,4.17,4.17,4.17,4.17-1.87,4.17-4.17Zm-.83,0c0,1.84-1.5,3.33-3.33,3.33s-3.33-1.5-3.33-3.33,1.5-3.33,3.33-3.33,3.33,1.5,3.33,3.33Z"/><path class="h" d="m10,120h10v-10h-10v10Z"/><path class="e" d="m15.32,116.25c-.11,0-.21-.04-.29-.12l-.83-.83c-.16-.16-.16-.43,0-.59l.83-.83c.16-.16.43-.16.59,0s.16.43,0,.59l-.54.54.54.54c.16.16.16.43,0,.59-.08.08-.19.12-.29.12Zm3.85-1.25c0-2.3-1.87-4.17-4.17-4.17s-4.17,1.87-4.17,4.17,1.87,4.17,4.17,4.17,4.17-1.87,4.17-4.17Zm-.83,0c0,1.84-1.5,3.33-3.33,3.33s-3.33-1.5-3.33-3.33,1.5-3.33,3.33-3.33,3.33,1.5,3.33,3.33Z"/><path class="h" d="m10,90h10v10h-10v-10Z"/><path class="e" d="m15,98.75c-1.84,0-3.33-1.5-3.33-3.33s1.5-3.33,3.33-3.33,3.33,1.5,3.33,3.33-1.5,3.33-3.33,3.33Zm0-5.83c-1.38,0-2.5,1.12-2.5,2.5s1.12,2.5,2.5,2.5,2.5-1.12,2.5-2.5-1.12-2.5-2.5-2.5Zm1.25,2.5c0-.23-.19-.42-.42-.42h-.42v-.83c0-.23-.19-.42-.42-.42s-.42.19-.42.42v1.25c0,.23.19.42.42.42h.83c.23,0,.42-.19.42-.42Zm-4.23-2.58l1.15-.83c.19-.14.23-.4.09-.58-.14-.19-.4-.23-.58-.09l-1.15.83c-.19.14-.23.4-.09.58.08.11.21.17.34.17.08,0,.17-.03.24-.08Zm6.55-.09c.14-.19.09-.45-.09-.58l-1.15-.83c-.19-.14-.45-.09-.58.09-.14.19-.09.45.09.58l1.15.83c.07.05.16.08.24.08.13,0,.26-.06.34-.17Z"/><path class="h" d="m10,80h10v10h-10v-10Z"/><path class="e" d="m18.54,86.72c-.34-.19-.57-.53-.62-.92v-1.24c-.05-1.15-.7-2.19-1.7-2.75-.12-.56-.62-.98-1.22-.98s-1.1.42-1.22.98c-1,.56-1.64,1.6-1.7,2.77v1.23c-.05.38-.29.72-.62.91-.17.09-.25.29-.2.47.05.18.21.31.4.31h1.67c0,.92.75,1.67,1.67,1.67s1.67-.75,1.67-1.67h1.67c.19,0,.36-.13.4-.31.05-.18-.03-.38-.2-.47Zm-3.54,1.61c-.46,0-.83-.37-.83-.83h1.67c0,.46-.37.83-.83.83Zm-2.35-1.67c.14-.24.23-.5.26-.78,0-.02,0-.03,0-.05v-1.23c.04-.93.59-1.75,1.43-2.14.15-.07.24-.22.24-.38,0-.23.19-.42.42-.42s.42.19.42.42c0,.16.09.31.24.38.84.4,1.39,1.22,1.43,2.12v1.25s0,.03,0,.05c.03.28.12.54.26.78h-4.69Zm6.1-3.45c-.16,0-.31-.09-.38-.24-.25-.54-.61-1.02-1.06-1.41-.17-.15-.19-.41-.04-.59.15-.17.41-.19.59-.04.54.47.97,1.04,1.27,1.69.1.21,0,.46-.21.55-.06.03-.12.04-.17.04Zm-7.5,0c-.06,0-.12-.01-.17-.04-.21-.1-.3-.34-.2-.55.3-.65.73-1.22,1.27-1.69.17-.15.44-.13.59.04.15.17.13.44-.04.59-.45.39-.81.87-1.06,1.41-.07.15-.22.24-.38.24Z"/><path class="h" d="m10,70h10v10h-10v-10Z"/><path class="e" d="m18.33,72.5h-1.67v-.83c0-.46-.37-.83-.83-.83h-1.67c-.46,0-.83.37-.83.83v.83h-1.67c-.23,0-.42.19-.42.42s.19.42.42.42h.03l.38,4.58c0,.69.56,1.25,1.25,1.25h3.33c.69,0,1.25-.56,1.25-1.22l.39-4.62h.03c.23,0,.42-.19.42-.42s-.19-.42-.42-.42Zm-4.17-.83h1.67v.83h-1.67v-.83Zm2.92,6.25c0,.23-.19.42-.42.42h-3.33c-.23,0-.42-.19-.42-.45l-.38-4.55h4.93l-.38,4.58Zm-2.92-.42c-.23,0-.42-.19-.42-.42v-2.5c0-.23.19-.42.42-.42s.42.19.42.42v2.5c0,.23-.19.42-.42.42Zm1.67,0c-.23,0-.42-.19-.42-.42v-2.5c0-.23.19-.42.42-.42s.42.19.42.42v2.5c0,.23-.19.42-.42.42Z"/><path class="h" d="m10,60h10v10h-10v-10Z"/><path class="e" d="m16.25,68.75h-3.75c-.69,0-1.25-.56-1.25-1.25v-3.75c0-.69.56-1.25,1.25-1.25h.42c.23,0,.42.19.42.42s-.19.42-.42.42h-.42c-.23,0-.42.19-.42.42v3.75c0,.23.19.42.42.42h3.75c.23,0,.42-.19.42-.42v-.42c0-.23.19-.42.42-.42s.42.19.42.42v.42c0,.69-.56,1.25-1.25,1.25Zm2.92-6.62c0,.34-.13.67-.38.91l-.52.52-.12.12h0l-2.85,2.86c-.08.08-.18.12-.3.12h-1.25c-.23,0-.42-.19-.42-.42v-1.25c0-.11.04-.22.12-.3l2.86-2.85s0,0,0,0l.12-.12.52-.52c.49-.49,1.34-.49,1.82,0,.25.24.38.57.38.91Zm-1.84,1.2l-.65-.65-2.5,2.5v.66h.66l2.5-2.5Zm1.01-1.2c0-.12-.05-.24-.13-.32-.17-.17-.48-.17-.65,0l-.29.29.65.65.29-.29h0c.09-.09.13-.2.13-.32Zm-1.96-.34s-.04.04-.05.06l.12-.12s-.05.03-.07.05Zm1.77,1.89s.04-.03.06-.05c.02-.02.04-.04.05-.07l-.12.12Z"/><path class="h" d="m10,50h10v10h-10v-10Z"/><path class="e" d="m15,50.83c-2.3,0-4.17,1.87-4.17,4.17s1.87,4.17,4.17,4.17,4.17-1.87,4.17-4.17-1.87-4.17-4.17-4.17Zm0,7.5c-1.84,0-3.33-1.5-3.33-3.33s1.5-3.33,3.33-3.33,3.33,1.5,3.33,3.33-1.5,3.33-3.33,3.33Zm1.67-3.33c0,.23-.19.42-.42.42h-.83v.83c0,.23-.19.42-.42.42s-.42-.19-.42-.42v-.83h-.83c-.23,0-.42-.19-.42-.42s.19-.42.42-.42h.83v-.83c0-.23.19-.42.42-.42s.42.19.42.42v.83h.83c.23,0,.42.19.42.42Z"/><path class="h" d="m10,0h10v10h-10V0Z"/><path class="e" d="m15,9.17c-2.3,0-4.17-1.87-4.17-4.17S12.7.83,15,.83s4.17,1.87,4.17,4.17-1.87,4.17-4.17,4.17Zm0-7.5c-1.84,0-3.33,1.5-3.33,3.33s1.5,3.33,3.33,3.33,3.33-1.5,3.33-3.33-1.5-3.33-3.33-3.33Zm.42,3.33v-1.67c0-.23-.19-.42-.42-.42s-.42.19-.42.42v1.67c0,.23.19.42.42.42s.42-.19.42-.42Zm0,1.67c0-.23-.19-.42-.42-.42h0c-.23,0-.41.19-.41.42s.19.42.42.42.42-.19.42-.42Z"/><path class="h" d="m10,50h10v-10h-10v10Z"/><path class="e" d="m16.88,41.28c-1.17-.59-2.58-.59-3.75,0-.21.1-.29.35-.18.56.1.2.35.29.56.18.94-.47,2.06-.47,3,0,1.64.83,2.3,2.84,1.48,4.48-.1.21-.02.46.18.56.06.03.12.05.19.05.15,0,.3-.08.37-.23,1.03-2.05.2-4.56-1.85-5.6Zm1.07,6.67h0s.02-.03.03-.04c0,.01-.02.03-.03.04Zm.1-.42s0-.02-.01-.03c0-.01-.01-.03-.02-.04,0-.01-.01-.02-.02-.04-.01-.02-.03-.04-.05-.06h0s-5.28-5.29-5.28-5.29c0,0,0,0-.01,0,0,0,0,0,0,0-.16-.17-.42-.17-.59,0-.79.78-1.24,1.82-1.25,2.94,0,1.11.42,2.16,1.2,2.96.82.83,1.89,1.24,2.97,1.24s2.11-.4,2.92-1.19l.05-.05s.02-.03.03-.04c.02-.03.04-.06.06-.1,0-.02.01-.04.02-.05,0-.03.01-.07.01-.1,0-.04,0-.08-.02-.12Zm-5.45-.17c-.62-.63-.96-1.47-.96-2.37,0-.75.26-1.46.72-2.04l4.68,4.68c-1.32,1.04-3.24.95-4.45-.28Z"/><path class="h" d="m10,40h10v-10h-10v10Z"/><path class="e" d="m15,39.17c-2.3,0-4.17-1.87-4.17-4.17s1.87-4.17,4.17-4.17,4.17,1.87,4.17,4.17-1.87,4.17-4.17,4.17Zm0-7.5c-1.84,0-3.33,1.5-3.33,3.33s1.5,3.33,3.33,3.33,3.33-1.5,3.33-3.33-1.5-3.33-3.33-3.33Zm-.12,4.46l1.67-1.67c.16-.16.16-.43,0-.59s-.43-.16-.59,0l-1.37,1.37-.54-.54c-.16-.16-.43-.16-.59,0s-.16.43,0,.59l.83.83c.08.08.19.12.29.12s.21-.04.29-.12Z"/><path class="h" d="m10,20h10v10h-10v-10Z"/><path class="e" d="m15,29.17c-2.3,0-4.17-1.87-4.17-4.17s1.87-4.17,4.17-4.17,4.17,1.87,4.17,4.17-1.87,4.17-4.17,4.17Zm0-7.5c-1.84,0-3.33,1.5-3.33,3.33s1.5,3.33,3.33,3.33,3.33-1.5,3.33-3.33-1.5-3.33-3.33-3.33Zm1.13,4.46c.16-.16.16-.43,0-.59l-.54-.54.54-.54c.16-.16.16-.43,0-.59s-.43-.16-.59,0l-.54.54-.54-.54c-.16-.16-.43-.16-.59,0s-.16.43,0,.59l.54.54-.54.54c-.16.16-.16.43,0,.59s.43.16.59,0l.54-.54.54.54c.08.08.19.12.29.12s.21-.04.29-.12Z"/><path class="h" d="m10,10h10v10h-10v-10Z"/><path class="e" d="m15,19.17c-2.3,0-4.17-1.87-4.17-4.17s1.87-4.17,4.17-4.17,4.17,1.87,4.17,4.17-1.87,4.17-4.17,4.17Zm0-7.5c-1.84,0-3.33,1.5-3.33,3.33s1.5,3.33,3.33,3.33,3.33-1.5,3.33-3.33-1.5-3.33-3.33-3.33Zm.42,5.42h0c0-.23-.19-.42-.42-.42s-.42.19-.42.42.19.42.42.42.42-.19.42-.42Zm-.39-1.05c.23-.01.41-.21.39-.44,0-.09.05-.18.15-.21.77-.3,1.16-1.16.87-1.94-.14-.37-.42-.67-.79-.83-.37-.16-.77-.17-1.15-.03-.26.1-.49.27-.66.49-.14.18-.1.44.08.58.18.14.44.1.58-.08.08-.1.18-.17.29-.22.17-.06.35-.06.51.01.16.07.29.2.35.37.13.34-.04.73-.37.86-.43.15-.72.58-.69,1.04.01.22.2.39.42.39,0,0,.02,0,.02,0Z"/><path class="h" d="m20,250h10v-10h-10v10Z"/><path class="f" d="m25.83,248.33c-.09,0-.18-.03-.25-.08l-1.67-1.25c-.1-.08-.17-.2-.17-.33v-1.51l-1.97-2.17s-.03-.03-.04-.05c-.12-.19-.17-.41-.13-.63.04-.22.17-.41.35-.53.06-.04.12-.07.19-.09.04-.02.09-.02.14-.02h5.42s.09,0,.14.02c.21.07.38.22.48.43.1.2.11.43.03.64-.02.06-.05.13-.09.19-.01.02-.02.03-.04.05l-1.97,2.17v2.76c0,.16-.09.3-.23.37-.06.03-.12.04-.19.04Zm-1.25-1.88l.83.63v-2.08c0-.1.04-.2.11-.28l2.02-2.22h-5.09l2.02,2.22c.07.08.11.18.11.28v1.46Z"/><path class="h" d="m20,220h10v10h-10v-10Z"/><path class="f" d="m27.5,223.51v.25h-1.25c-.46,0-.83-.38-.83-.83v-1.25h.24l.59.59v.66h.66l.59.59Zm.76-.4s-.03-.04-.05-.06h0s.04.04.05.06Zm.07.23v4.58c0,.69-.56,1.25-1.25,1.25h-4.17c-.69,0-1.25-.56-1.25-1.25v-5.83c0-.69.56-1.25,1.25-1.25h2.92c.11,0,.22.05.3.12l2.08,2.08s.04.04.05.06c.02.03.04.06.05.1.02.04.02.09.02.14Zm-.83.17l-.59-.59-.66-.66-.59-.59h-2.74c-.23,0-.42.19-.42.42v5.83c0,.23.19.42.42.42h4.17c.23,0,.42-.19.42-.42v-4.41Zm-2.92.24c0-.23-.19-.42-.42-.42h-.42c-.23,0-.42.19-.42.42s.19.42.42.42h.42c.23,0,.42-.19.42-.42Zm2.08,1.67c0-.23-.19-.42-.42-.42h-2.5c-.23,0-.42.19-.42.42s.19.42.42.42h2.5c.23,0,.42-.19.42-.42Zm0,1.67c0-.23-.19-.42-.42-.42h-2.5c-.23,0-.42.19-.42.42s.19.42.42.42h2.5c.23,0,.42-.19.42-.42Z"/><path class="h" d="m20,230h10v10h-10v-10Z"/><path class="f" d="m27.5,239.17h-5c-.69,0-1.25-.56-1.25-1.25v-.83c0-.23.19-.42.42-.42s.42.19.42.42v.83c0,.23.19.42.42.42h5c.23,0,.42-.19.42-.42v-.83c0-.23.19-.42.42-.42s.42.19.42.42v.83c0,.69-.56,1.25-1.25,1.25Zm-.12-4.88c-.16-.16-.43-.16-.59,0l-1.37,1.37v-3.99c0-.23-.19-.42-.42-.42s-.42.19-.42.42v4l-1.37-1.37c-.16-.16-.42-.16-.59,0-.16.16-.16.42,0,.59l2.08,2.08s.02.02.04.03c.05.04.11.07.17.08.03,0,.05,0,.08,0s.06,0,.08,0c.06-.01.12-.04.17-.08.01,0,.03-.02.04-.03l2.08-2.08c.16-.16.16-.43,0-.59Z"/><path class="h" d="m20,210h10v10h-10v-10Z"/><path class="f" d="m25,219.17h0c-.53,0-.98-.35-1.1-.87-.02-.08-.07-.14-.14-.19-.07-.04-.15-.05-.23-.04-.03,0-.06.02-.09.04-.46.28-1.02.21-1.39-.17-.38-.38-.44-.94-.17-1.39.04-.07.05-.15.04-.23-.02-.08-.07-.14-.14-.19-.03-.02-.05-.03-.09-.03-.52-.13-.87-.57-.87-1.1s.35-.98.87-1.1c.08-.02.14-.07.19-.14.04-.07.05-.15.04-.23,0-.03-.02-.06-.04-.09-.28-.46-.21-1.02.17-1.39.38-.38.94-.44,1.39-.17.08.05.18.06.27.02.09-.04.15-.11.18-.21h0c.13-.52.57-.87,1.1-.87h0c.53,0,.98.35,1.1.87.02.08.07.15.14.19.07.04.15.05.23.04.03,0,.06-.02.09-.04.46-.28,1.02-.21,1.39.17s.44.94.17,1.39c-.09.14-.04.33.1.41.03.02.05.03.09.03.52.13.87.57.87,1.1s-.35.98-.87,1.1c-.08.02-.14.07-.19.14-.04.07-.05.15-.04.23,0,.03.02.06.04.09.28.46.21,1.02-.17,1.39-.38.38-.94.44-1.39.17-.07-.04-.15-.06-.23-.04-.08.02-.14.07-.19.14-.02.03-.03.06-.04.09-.13.52-.57.87-1.1.87Zm-1.39-1.93c.21,0,.41.06.59.17.26.16.44.41.51.7.05.21.24.23.29.23h0c.06,0,.24-.02.29-.23.03-.11.07-.22.13-.32.16-.26.41-.44.7-.51.3-.07.6-.02.86.13.19.11.33,0,.37-.04.04-.04.16-.18.04-.37-.06-.1-.11-.21-.13-.32-.07-.29-.02-.6.13-.86.16-.26.41-.44.7-.51.21-.05.23-.24.23-.29s-.02-.24-.23-.29c-.11-.03-.22-.07-.32-.13-.54-.33-.71-1.03-.38-1.56.11-.19,0-.33-.04-.37-.04-.04-.18-.16-.37-.04-.1.06-.21.11-.32.13-.29.07-.6.02-.86-.13-.26-.16-.44-.41-.51-.7-.05-.21-.24-.23-.29-.23-.06,0-.24.02-.29.23h0c-.09.36-.33.64-.67.78s-.71.11-1.02-.08c-.19-.11-.33,0-.37.04s-.16.18-.04.37c.06.1.11.21.13.32.07.29.02.6-.13.86s-.41.44-.7.51c-.21.05-.23.24-.23.29s.02.24.23.29c.11.03.22.07.32.13.26.16.44.41.51.7s.02.6-.13.86c-.11.19,0,.33.04.37.04.04.18.16.37.04.1-.06.21-.11.32-.13.09-.02.18-.03.27-.03Zm.7-5.44h0,0Zm.7,4.87c-.92,0-1.67-.75-1.67-1.67s.75-1.67,1.67-1.67,1.67.75,1.67,1.67-.75,1.67-1.67,1.67Zm0-2.5c-.46,0-.83.37-.83.83s.37.83.83.83.83-.37.83-.83-.37-.83-.83-.83Z"/><path class="h" d="m20,200h10v10h-10v-10Z"/><path class="f" d="m25,200.83c-2.3,0-4.17,1.87-4.17,4.17,0,1.26.56,2.39,1.45,3.15.01.01.02.02.04.03.73.61,1.66.98,2.68.98s1.95-.37,2.67-.97c.02-.01.04-.03.05-.05.88-.76,1.44-1.89,1.44-3.15,0-2.3-1.87-4.17-4.17-4.17Zm0,7.5c-.72,0-1.38-.23-1.92-.61.08-.15.2-.29.34-.39.21-.16.47-.25.75-.25h1.67c.45,0,.87.25,1.09.64-.54.38-1.21.61-1.92.61Zm2.55-1.18c-.38-.55-1.02-.9-1.71-.9h-1.67c-.7,0-1.33.34-1.71.9-.49-.58-.79-1.33-.79-2.15,0-1.84,1.5-3.33,3.33-3.33s3.33,1.5,3.33,3.33c0,.82-.3,1.57-.79,2.15Zm-2.55-1.32c-.92,0-1.67-.75-1.67-1.67s.75-1.67,1.67-1.67,1.67.75,1.67,1.67-.75,1.67-1.67,1.67Zm0-2.5c-.46,0-.83.37-.83.83s.37.83.83.83.83-.37.83-.83-.37-.83-.83-.83Z"/><path class="h" d="m20,180h10v10h-10v-10Z"/><path class="f" d="m25,188.77c-.16,0-.33-.01-.49-.03-.95-.12-1.81-.61-2.4-1.33v.93c0,.23-.19.42-.42.42s-.42-.19-.42-.42v-2.08c0-.23.19-.42.42-.42h.2s.01,0,.02,0h1.87c.23,0,.42.19.42.42s-.19.42-.42.42h-1.18c.46.67,1.2,1.13,2.03,1.24.77.1,1.54-.1,2.16-.58.62-.47,1.01-1.16,1.12-1.93s-.1-1.54-.58-2.16c-.47-.62-1.16-1.01-1.93-1.12-1.59-.21-3.06.92-3.27,2.51-.03.23-.24.39-.47.36-.23-.03-.39-.24-.36-.47.27-2.05,2.16-3.5,4.21-3.23.99.13,1.88.64,2.49,1.43.61.79.87,1.78.74,2.77s-.64,1.88-1.43,2.49c-.66.51-1.46.78-2.28.78Z"/><path class="h" d="m20,170h10v10h-10v-10Z"/><path class="f" d="m28.33,175c-.2,0-.38-.15-.41-.36-.11-.78-.52-1.48-1.15-1.95-.63-.48-1.41-.68-2.19-.57-.81.11-1.54.56-2,1.22h.75c.23,0,.42.19.42.42s-.19.42-.42.42h-1.67c-.23,0-.42-.19-.42-.42v-1.67c0-.23.19-.42.42-.42s.42.19.42.42v.53c.6-.71,1.44-1.19,2.39-1.32,1-.14,2,.12,2.81.73.81.61,1.33,1.5,1.47,2.5.03.23-.13.44-.36.47-.02,0-.04,0-.06,0Zm-2.8,3.71c.94-.13,1.79-.61,2.39-1.32v.53c0,.23.19.42.42.42s.42-.19.42-.42v-1.67c0-.23-.19-.42-.42-.42h-.2s-.01,0-.02,0h-1.45c-.23,0-.42.19-.42.42s.19.42.42.42h.75c-.47.65-1.19,1.1-2,1.22-.78.11-1.56-.09-2.19-.57s-1.04-1.17-1.15-1.95c-.03-.23-.24-.39-.47-.36-.23.03-.39.24-.36.47.14,1,.66,1.89,1.47,2.5.67.5,1.46.77,2.28.77.18,0,.35-.01.53-.04Z"/><path class="h" d="m20,170h10v-10h-10v10Z"/><path class="f" d="m29.04,168.46l-2.25-2.25c.44-.56.7-1.27.7-2.04,0-1.84-1.5-3.33-3.33-3.33s-3.33,1.5-3.33,3.33,1.5,3.33,3.33,3.33c.77,0,1.48-.26,2.04-.7l2.25,2.25c.08.08.19.12.29.12s.21-.04.3-.12c.16-.16.16-.43,0-.59Zm-4.88-1.79c-1.38,0-2.5-1.12-2.5-2.5s1.12-2.5,2.5-2.5,2.5,1.12,2.5,2.5-1.12,2.5-2.5,2.5Z"/><path class="h" d="m20,190h10v10h-10v-10Z"/><path class="f" d="m29.04,194.7l-3.75-3.75c-.16-.16-.42-.16-.59,0l-3.75,3.75c-.12.12-.15.3-.09.45.07.16.22.26.39.26h.42v2.5c0,.69.56,1.25,1.25,1.25h4.17c.69,0,1.25-.56,1.25-1.25v-2.5h.42c.17,0,.32-.1.38-.26.07-.15.03-.33-.09-.45Zm-4.88,3.63v-2.08c0-.23.19-.42.42-.42h.83c.23,0,.42.19.42.42v2.08h-1.67Zm3.59-3.72s-.01,0-.02,0c-.02,0-.03.02-.05.02,0,0-.01,0-.02.01-.02.01-.04.03-.06.05-.02.02-.04.04-.05.06-.01.02-.02.04-.03.06,0,0,0,.01,0,.02,0,.02-.01.04-.02.06,0,.03,0,.05,0,.08v2.92c0,.23-.19.42-.42.42h-.42v-2.08c0-.69-.56-1.25-1.25-1.25h-.83c-.69,0-1.25.56-1.25,1.25v2.08h-.42c-.23,0-.42-.19-.42-.42v-2.92s0-.06,0-.08c0-.02-.01-.04-.02-.06,0,0,0-.02,0-.02,0-.02-.02-.03-.02-.05,0,0,0-.02-.02-.02-.01-.02-.03-.04-.05-.05-.02-.02-.04-.03-.06-.05,0,0,0,0-.02-.01-.02,0-.03-.02-.05-.02,0,0-.01,0-.02,0,0,0,0,0-.01,0l2.77-2.77,2.77,2.77s0,0-.01,0Z"/><path class="f" d="m25.02,158.65c-1.05,0-2.07-.46-2.78-1.3-1.3-1.54-1.1-3.84.43-5.14.98-.83,2.29-1.08,3.51-.67.22.07.34.31.26.53-.07.22-.31.34-.53.26-.94-.31-1.95-.12-2.71.52-1.18,1-1.33,2.78-.33,3.96.75.89,1.94,1.22,3.04.85.22-.07.45.04.53.26.07.22-.04.45-.26.53-.38.13-.78.19-1.17.19Zm3.72-3.73c-.02-.08-.05-.15-.11-.21l-1.47-1.47c-.16-.16-.42-.16-.59,0-.16.16-.16.42,0,.59l.76.76h-2.32c-.23,0-.42.19-.42.42s.19.42.42.42h2.32l-.76.76c-.16.16-.16.43,0,.59.08.08.19.12.3.12s.21-.04.29-.12l1.47-1.47c.06-.06.1-.13.11-.21,0-.03,0-.05,0-.08s0-.06,0-.08Z"/><rect class="h" x="20" y="150" width="10" height="10"/><path class="h" d="m20,100h10v10h-10v-10Z"/><path class="f" d="m27.5,101.67h-.42v-.42c0-.23-.19-.42-.42-.42s-.42.19-.42.42v.42h-2.5v-.42c0-.23-.19-.42-.42-.42s-.42.19-.42.42v.42h-.42c-.69,0-1.25.56-1.25,1.25v5c0,.69.56,1.25,1.25,1.25h5c.69,0,1.25-.56,1.25-1.25v-5c0-.69-.56-1.25-1.25-1.25Zm.42,6.25c0,.23-.19.42-.42.42h-5c-.23,0-.42-.19-.42-.42v-2.92h5.83v2.92Zm0-3.75h-5.83v-1.25c0-.23.19-.42.42-.42h.42v.42c0,.23.19.42.42.42s.42-.19.42-.42v-.42h2.5v.42c0,.23.19.42.42.42s.42-.19.42-.42v-.42h.42c.23,0,.42.19.42.42v1.25Zm-3.75,3.33h-.83c-.23,0-.42-.19-.42-.42v-.83c0-.23.19-.42.42-.42h.83c.23,0,.42.19.42.42v.83c0,.23-.19.42-.42.42Z"/><path class="h" d="m20,150h10v-10h-10v10Z"/><path class="f" d="m27.05,149.11h-5c-.69,0-1.25-.56-1.25-1.25v-5c0-.69.56-1.25,1.25-1.25h2.68c.23,0,.42.19.42.42s-.19.42-.42.42h-2.68c-.23,0-.42.19-.42.42v5c0,.23.19.42.42.42h5c.23,0,.42-.19.42-.42v-2.55c0-.23.19-.42.42-.42s.42.19.42.42v2.55c0,.69-.56,1.25-1.25,1.25Zm2.14-6.62c-.02-.08-.06-.15-.11-.21h0s-1.27-1.27-1.27-1.27c-.16-.16-.43-.16-.59,0-.16.16-.16.43,0,.59l.56.56c-2.13.03-3.86,1.77-3.86,3.91,0,.23.19.42.42.42s.42-.19.42-.42c0-1.68,1.35-3.05,3.02-3.08l-.56.56c-.16.16-.16.42,0,.59.08.08.19.12.29.12s.21-.04.3-.12l1.27-1.27h0c.06-.06.1-.13.11-.21,0-.03,0-.05,0-.08s0-.06,0-.08Z"/><path class="h" d="m20,140h10v-10h-10v10Z"/><path class="f" d="m28.32,133.75c-.23,0-.42-.19-.42-.42v-1.25h-1.25c-.23,0-.42-.19-.42-.42s.19-.42.42-.42h1.67c.23,0,.42.19.42.42v1.67c0,.23-.19.42-.42.42Zm-4.19,2.78l3.32-3.32c.16-.16.16-.43,0-.59s-.43-.16-.59,0l-3.32,3.32c-.16.16-.16.43,0,.59.08.08.19.12.29.12s.21-.04.29-.12Zm4.62.97v-1.72c0-.23-.19-.42-.42-.42s-.42.19-.42.42v1.72c0,.23-.19.42-.42.42h-5c-.23,0-.42-.19-.42-.42v-5c0-.23.19-.42.42-.42h1.85c.23,0,.42-.19.42-.42s-.19-.42-.42-.42h-1.85c-.69,0-1.25.56-1.25,1.25v5c0,.69.56,1.25,1.25,1.25h5c.69,0,1.25-.56,1.25-1.25Z"/><path class="h" d="m30,120h-10s0,10,0,10h10s0-10,0-10Z"/><path class="f" d="m24.68,126.25c-.11,0-.21-.04-.29-.12-.16-.16-.16-.43,0-.59l.54-.54-.54-.54c-.16-.16-.16-.43,0-.59s.43-.16.59,0l.83.83c.16.16.16.43,0,.59l-.83.83c-.08.08-.19.12-.29.12Zm4.48-1.25c0-2.3-1.87-4.17-4.17-4.17s-4.17,1.87-4.17,4.17,1.87,4.17,4.17,4.17,4.17-1.87,4.17-4.17Zm-.83,0c0,1.84-1.5,3.33-3.33,3.33s-3.33-1.5-3.33-3.33,1.5-3.33,3.33-3.33,3.33,1.5,3.33,3.33Z"/><path class="h" d="m20,120h10v-10h-10v10Z"/><path class="f" d="m25.32,116.25c-.11,0-.21-.04-.29-.12l-.83-.83c-.16-.16-.16-.43,0-.59l.83-.83c.16-.16.43-.16.59,0s.16.43,0,.59l-.54.54.54.54c.16.16.16.43,0,.59-.08.08-.19.12-.29.12Zm3.85-1.25c0-2.3-1.87-4.17-4.17-4.17s-4.17,1.87-4.17,4.17,1.87,4.17,4.17,4.17,4.17-1.87,4.17-4.17Zm-.83,0c0,1.84-1.5,3.33-3.33,3.33s-3.33-1.5-3.33-3.33,1.5-3.33,3.33-3.33,3.33,1.5,3.33,3.33Z"/><path class="h" d="m20,90h10v10h-10v-10Z"/><path class="f" d="m25,98.75c-1.84,0-3.33-1.5-3.33-3.33s1.5-3.33,3.33-3.33,3.33,1.5,3.33,3.33-1.5,3.33-3.33,3.33Zm0-5.83c-1.38,0-2.5,1.12-2.5,2.5s1.12,2.5,2.5,2.5,2.5-1.12,2.5-2.5-1.12-2.5-2.5-2.5Zm1.25,2.5c0-.23-.19-.42-.42-.42h-.42v-.83c0-.23-.19-.42-.42-.42s-.42.19-.42.42v1.25c0,.23.19.42.42.42h.83c.23,0,.42-.19.42-.42Zm-4.23-2.58l1.15-.83c.19-.14.23-.4.09-.58-.14-.19-.4-.23-.58-.09l-1.15.83c-.19.14-.23.4-.09.58.08.11.21.17.34.17.08,0,.17-.03.24-.08Zm6.55-.09c.14-.19.09-.45-.09-.58l-1.15-.83c-.19-.14-.45-.09-.58.09-.14.19-.09.45.09.58l1.15.83c.07.05.16.08.24.08.13,0,.26-.06.34-.17Z"/><path class="h" d="m20,80h10v10h-10v-10Z"/><path class="f" d="m28.54,86.72c-.34-.19-.57-.53-.62-.92v-1.24c-.05-1.15-.7-2.19-1.7-2.75-.12-.56-.62-.98-1.22-.98s-1.1.42-1.22.98c-1,.56-1.64,1.6-1.7,2.77v1.23c-.05.38-.29.72-.62.91-.17.09-.25.29-.2.47.05.18.21.31.4.31h1.67c0,.92.75,1.67,1.67,1.67s1.67-.75,1.67-1.67h1.67c.19,0,.36-.13.4-.31.05-.18-.03-.38-.2-.47Zm-3.54,1.61c-.46,0-.83-.37-.83-.83h1.67c0,.46-.37.83-.83.83Zm-2.35-1.67c.14-.24.23-.5.26-.78,0-.02,0-.03,0-.05v-1.23c.04-.93.59-1.75,1.43-2.14.15-.07.24-.22.24-.38,0-.23.19-.42.42-.42s.42.19.42.42c0,.16.09.31.24.38.84.4,1.39,1.22,1.43,2.12v1.25s0,.03,0,.05c.03.28.12.54.26.78h-4.69Zm6.1-3.45c-.16,0-.31-.09-.38-.24-.25-.54-.61-1.02-1.06-1.41-.17-.15-.19-.41-.04-.59.15-.17.41-.19.59-.04.54.47.97,1.04,1.27,1.69.1.21,0,.46-.21.55-.06.03-.12.04-.17.04Zm-7.5,0c-.06,0-.12-.01-.17-.04-.21-.1-.3-.34-.2-.55.3-.65.73-1.22,1.27-1.69.17-.15.44-.13.59.04.15.17.13.44-.04.59-.45.39-.81.87-1.06,1.41-.07.15-.22.24-.38.24Z"/><path class="h" d="m20,70h10v10h-10v-10Z"/><path class="f" d="m28.33,72.5h-1.67v-.83c0-.46-.37-.83-.83-.83h-1.67c-.46,0-.83.37-.83.83v.83h-1.67c-.23,0-.42.19-.42.42s.19.42.42.42h.03l.38,4.58c0,.69.56,1.25,1.25,1.25h3.33c.69,0,1.25-.56,1.25-1.22l.39-4.62h.03c.23,0,.42-.19.42-.42s-.19-.42-.42-.42Zm-4.17-.83h1.67v.83h-1.67v-.83Zm2.92,6.25c0,.23-.19.42-.42.42h-3.33c-.23,0-.42-.19-.42-.45l-.38-4.55h4.93l-.38,4.58Zm-2.92-.42c-.23,0-.42-.19-.42-.42v-2.5c0-.23.19-.42.42-.42s.42.19.42.42v2.5c0,.23-.19.42-.42.42Zm1.67,0c-.23,0-.42-.19-.42-.42v-2.5c0-.23.19-.42.42-.42s.42.19.42.42v2.5c0,.23-.19.42-.42.42Z"/><path class="h" d="m20,60h10v10h-10v-10Z"/><path class="f" d="m26.25,68.75h-3.75c-.69,0-1.25-.56-1.25-1.25v-3.75c0-.69.56-1.25,1.25-1.25h.42c.23,0,.42.19.42.42s-.19.42-.42.42h-.42c-.23,0-.42.19-.42.42v3.75c0,.23.19.42.42.42h3.75c.23,0,.42-.19.42-.42v-.42c0-.23.19-.42.42-.42s.42.19.42.42v.42c0,.69-.56,1.25-1.25,1.25Zm2.92-6.62c0,.34-.13.67-.38.91l-.52.52-.12.12h0l-2.85,2.86c-.08.08-.18.12-.3.12h-1.25c-.23,0-.42-.19-.42-.42v-1.25c0-.11.04-.22.12-.3l2.86-2.85s0,0,0,0l.12-.12.52-.52c.49-.49,1.34-.49,1.82,0,.25.24.38.57.38.91Zm-1.84,1.2l-.65-.65-2.5,2.5v.66h.66l2.5-2.5Zm1.01-1.2c0-.12-.05-.24-.13-.32-.17-.17-.48-.17-.65,0l-.29.29.65.65.29-.29h0c.09-.09.13-.2.13-.32Zm-1.96-.34s-.04.04-.05.06l.12-.12s-.05.03-.07.05Zm1.77,1.89s.04-.03.06-.05c.02-.02.04-.04.05-.07l-.12.12Z"/><path class="h" d="m20,50h10v10h-10v-10Z"/><path class="f" d="m25,50.83c-2.3,0-4.17,1.87-4.17,4.17s1.87,4.17,4.17,4.17,4.17-1.87,4.17-4.17-1.87-4.17-4.17-4.17Zm0,7.5c-1.84,0-3.33-1.5-3.33-3.33s1.5-3.33,3.33-3.33,3.33,1.5,3.33,3.33-1.5,3.33-3.33,3.33Zm1.67-3.33c0,.23-.19.42-.42.42h-.83v.83c0,.23-.19.42-.42.42s-.42-.19-.42-.42v-.83h-.83c-.23,0-.42-.19-.42-.42s.19-.42.42-.42h.83v-.83c0-.23.19-.42.42-.42s.42.19.42.42v.83h.83c.23,0,.42.19.42.42Z"/><path class="h" d="m20,0h10v10h-10V0Z"/><path class="f" d="m25,9.17c-2.3,0-4.17-1.87-4.17-4.17s1.87-4.17,4.17-4.17,4.17,1.87,4.17,4.17-1.87,4.17-4.17,4.17Zm0-7.5c-1.84,0-3.33,1.5-3.33,3.33s1.5,3.33,3.33,3.33,3.33-1.5,3.33-3.33-1.5-3.33-3.33-3.33Zm.42,3.33v-1.67c0-.23-.19-.42-.42-.42s-.42.19-.42.42v1.67c0,.23.19.42.42.42s.42-.19.42-.42Zm0,1.67c0-.23-.19-.42-.42-.42h0c-.23,0-.41.19-.41.42s.19.42.42.42.42-.19.42-.42Z"/><path class="h" d="m20,50h10v-10h-10v10Z"/><path class="f" d="m26.88,41.28c-1.17-.59-2.58-.59-3.75,0-.21.1-.29.35-.18.56.1.2.35.29.56.18.94-.47,2.06-.47,3,0,1.64.83,2.3,2.84,1.48,4.48-.1.21-.02.46.18.56.06.03.12.05.19.05.15,0,.3-.08.37-.23,1.03-2.05.2-4.56-1.85-5.6Zm1.07,6.67h0s.02-.03.03-.04c0,.01-.02.03-.03.04Zm.1-.42s0-.02-.01-.03c0-.01-.01-.03-.02-.04,0-.01-.01-.02-.02-.04-.01-.02-.03-.04-.05-.06h0s-5.28-5.29-5.28-5.29c0,0,0,0-.01,0,0,0,0,0,0,0-.16-.17-.42-.17-.59,0-.79.78-1.24,1.82-1.25,2.94,0,1.11.42,2.16,1.2,2.96.82.83,1.89,1.24,2.97,1.24s2.11-.4,2.92-1.19l.05-.05s.02-.03.03-.04c.02-.03.04-.06.06-.1,0-.02.01-.04.02-.05,0-.03.01-.07.01-.1,0-.04,0-.08-.02-.12Zm-5.45-.17c-.62-.63-.96-1.47-.96-2.37,0-.75.26-1.46.72-2.04l4.68,4.68c-1.32,1.04-3.24.95-4.45-.28Z"/><path class="h" d="m20,40h10v-10h-10v10Z"/><path class="f" d="m25,39.17c-2.3,0-4.17-1.87-4.17-4.17s1.87-4.17,4.17-4.17,4.17,1.87,4.17,4.17-1.87,4.17-4.17,4.17Zm0-7.5c-1.84,0-3.33,1.5-3.33,3.33s1.5,3.33,3.33,3.33,3.33-1.5,3.33-3.33-1.5-3.33-3.33-3.33Zm-.12,4.46l1.67-1.67c.16-.16.16-.43,0-.59s-.43-.16-.59,0l-1.37,1.37-.54-.54c-.16-.16-.43-.16-.59,0s-.16.43,0,.59l.83.83c.08.08.19.12.29.12s.21-.04.29-.12Z"/><path class="h" d="m20,20h10v10h-10v-10Z"/><path class="f" d="m25,29.17c-2.3,0-4.17-1.87-4.17-4.17s1.87-4.17,4.17-4.17,4.17,1.87,4.17,4.17-1.87,4.17-4.17,4.17Zm0-7.5c-1.84,0-3.33,1.5-3.33,3.33s1.5,3.33,3.33,3.33,3.33-1.5,3.33-3.33-1.5-3.33-3.33-3.33Zm1.13,4.46c.16-.16.16-.43,0-.59l-.54-.54.54-.54c.16-.16.16-.43,0-.59s-.43-.16-.59,0l-.54.54-.54-.54c-.16-.16-.43-.16-.59,0s-.16.43,0,.59l.54.54-.54.54c-.16.16-.16.43,0,.59s.43.16.59,0l.54-.54.54.54c.08.08.19.12.29.12s.21-.04.29-.12Z"/><path class="h" d="m20,10h10v10h-10v-10Z"/><path class="f" d="m25,19.17c-2.3,0-4.17-1.87-4.17-4.17s1.87-4.17,4.17-4.17,4.17,1.87,4.17,4.17-1.87,4.17-4.17,4.17Zm0-7.5c-1.84,0-3.33,1.5-3.33,3.33s1.5,3.33,3.33,3.33,3.33-1.5,3.33-3.33-1.5-3.33-3.33-3.33Zm.42,5.42h0c0-.23-.19-.42-.42-.42s-.42.19-.42.42.19.42.42.42.42-.19.42-.42Zm-.39-1.05c.23-.01.41-.21.39-.44,0-.09.05-.18.15-.21.77-.3,1.16-1.16.87-1.94-.14-.37-.42-.67-.79-.83-.37-.16-.77-.17-1.15-.03-.26.1-.49.27-.66.49-.14.18-.1.44.08.58.18.14.44.1.58-.08.08-.1.18-.17.29-.22.17-.06.35-.06.51.01.16.07.29.2.35.37.13.34-.04.73-.37.86-.43.15-.72.58-.69,1.04.01.22.2.39.42.39,0,0,.02,0,.02,0Z"/><path class="h" d="m30,250h10v-10h-10v10Z"/><path class="c" d="m35.83,248.33c-.09,0-.18-.03-.25-.08l-1.67-1.25c-.1-.08-.17-.2-.17-.33v-1.51l-1.97-2.17s-.03-.03-.04-.05c-.12-.19-.17-.41-.13-.63.04-.22.17-.41.35-.53.06-.04.12-.07.19-.09.04-.02.09-.02.14-.02h5.42s.09,0,.14.02c.21.07.38.22.48.43.1.2.11.43.03.64-.02.06-.05.13-.09.19-.01.02-.02.03-.04.05l-1.97,2.17v2.76c0,.16-.09.3-.23.37-.06.03-.12.04-.19.04Zm-1.25-1.88l.83.63v-2.08c0-.1.04-.2.11-.28l2.02-2.22h-5.09l2.02,2.22c.07.08.11.18.11.28v1.46Z"/><path class="h" d="m30,220h10v10h-10v-10Z"/><path class="c" d="m37.5,223.51v.25h-1.25c-.46,0-.83-.38-.83-.83v-1.25h.24l.59.59v.66h.66l.59.59Zm.76-.4s-.03-.04-.05-.06h0s.04.04.05.06Zm.07.23v4.58c0,.69-.56,1.25-1.25,1.25h-4.17c-.69,0-1.25-.56-1.25-1.25v-5.83c0-.69.56-1.25,1.25-1.25h2.92c.11,0,.22.05.3.12l2.08,2.08s.04.04.05.06c.02.03.04.06.05.1.02.04.02.09.02.14Zm-.83.17l-.59-.59-.66-.66-.59-.59h-2.74c-.23,0-.42.19-.42.42v5.83c0,.23.19.42.42.42h4.17c.23,0,.42-.19.42-.42v-4.41Zm-2.92.24c0-.23-.19-.42-.42-.42h-.42c-.23,0-.42.19-.42.42s.19.42.42.42h.42c.23,0,.42-.19.42-.42Zm2.08,1.67c0-.23-.19-.42-.42-.42h-2.5c-.23,0-.42.19-.42.42s.19.42.42.42h2.5c.23,0,.42-.19.42-.42Zm0,1.67c0-.23-.19-.42-.42-.42h-2.5c-.23,0-.42.19-.42.42s.19.42.42.42h2.5c.23,0,.42-.19.42-.42Z"/><path class="h" d="m30,230h10v10h-10v-10Z"/><path class="c" d="m37.5,239.17h-5c-.69,0-1.25-.56-1.25-1.25v-.83c0-.23.19-.42.42-.42s.42.19.42.42v.83c0,.23.19.42.42.42h5c.23,0,.42-.19.42-.42v-.83c0-.23.19-.42.42-.42s.42.19.42.42v.83c0,.69-.56,1.25-1.25,1.25Zm-.12-4.88c-.16-.16-.43-.16-.59,0l-1.37,1.37v-3.99c0-.23-.19-.42-.42-.42s-.42.19-.42.42v4l-1.37-1.37c-.16-.16-.42-.16-.59,0-.16.16-.16.42,0,.59l2.08,2.08s.02.02.04.03c.05.04.11.07.17.08.03,0,.05,0,.08,0s.06,0,.08,0c.06-.01.12-.04.17-.08.01,0,.03-.02.04-.03l2.08-2.08c.16-.16.16-.43,0-.59Z"/><path class="h" d="m30,210h10v10h-10v-10Z"/><path class="c" d="m35,219.17h0c-.53,0-.98-.35-1.1-.87-.02-.08-.07-.14-.14-.19-.07-.04-.15-.05-.23-.04-.03,0-.06.02-.09.04-.46.28-1.02.21-1.39-.17-.38-.38-.44-.94-.17-1.39.04-.07.05-.15.04-.23-.02-.08-.07-.14-.14-.19-.03-.02-.05-.03-.09-.03-.52-.13-.87-.57-.87-1.1s.35-.98.87-1.1c.08-.02.14-.07.19-.14.04-.07.05-.15.04-.23,0-.03-.02-.06-.04-.09-.28-.46-.21-1.02.17-1.39.38-.38.94-.44,1.39-.17.08.05.18.06.27.02.09-.04.15-.11.18-.21h0c.13-.52.57-.87,1.1-.87h0c.53,0,.98.35,1.1.87.02.08.07.15.14.19.07.04.15.05.23.04.03,0,.06-.02.09-.04.46-.28,1.02-.21,1.39.17s.44.94.17,1.39c-.09.14-.04.33.1.41.03.02.05.03.09.03.52.13.87.57.87,1.1s-.35.98-.87,1.1c-.08.02-.14.07-.19.14-.04.07-.05.15-.04.23,0,.03.02.06.04.09.28.46.21,1.02-.17,1.39-.38.38-.94.44-1.39.17-.07-.04-.15-.06-.23-.04-.08.02-.14.07-.19.14-.02.03-.03.06-.04.09-.13.52-.57.87-1.1.87Zm-1.39-1.93c.21,0,.41.06.59.17.26.16.44.41.51.7.05.21.24.23.29.23h0c.06,0,.24-.02.29-.23.03-.11.07-.22.13-.32.16-.26.41-.44.7-.51.3-.07.6-.02.86.13.19.11.33,0,.37-.04.04-.04.16-.18.04-.37-.06-.1-.11-.21-.13-.32-.07-.29-.02-.6.13-.86.16-.26.41-.44.7-.51.21-.05.23-.24.23-.29s-.02-.24-.23-.29c-.11-.03-.22-.07-.32-.13-.54-.33-.71-1.03-.38-1.56.11-.19,0-.33-.04-.37-.04-.04-.18-.16-.37-.04-.1.06-.21.11-.32.13-.29.07-.6.02-.86-.13-.26-.16-.44-.41-.51-.7-.05-.21-.24-.23-.29-.23-.06,0-.24.02-.29.23h0c-.09.36-.33.64-.67.78s-.71.11-1.02-.08c-.19-.11-.33,0-.37.04s-.16.18-.04.37c.06.1.11.21.13.32.07.29.02.6-.13.86s-.41.44-.7.51c-.21.05-.23.24-.23.29s.02.24.23.29c.11.03.22.07.32.13.26.16.44.41.51.7s.02.6-.13.86c-.11.19,0,.33.04.37.04.04.18.16.37.04.1-.06.21-.11.32-.13.09-.02.18-.03.27-.03Zm.7-5.44h0,0Zm.7,4.87c-.92,0-1.67-.75-1.67-1.67s.75-1.67,1.67-1.67,1.67.75,1.67,1.67-.75,1.67-1.67,1.67Zm0-2.5c-.46,0-.83.37-.83.83s.37.83.83.83.83-.37.83-.83-.37-.83-.83-.83Z"/><path class="h" d="m30,200h10v10h-10v-10Z"/><path class="c" d="m35,200.83c-2.3,0-4.17,1.87-4.17,4.17,0,1.26.56,2.39,1.45,3.15.01.01.02.02.04.03.73.61,1.66.98,2.68.98s1.95-.37,2.67-.97c.02-.01.04-.03.05-.05.88-.76,1.44-1.89,1.44-3.15,0-2.3-1.87-4.17-4.17-4.17Zm0,7.5c-.72,0-1.38-.23-1.92-.61.08-.15.2-.29.34-.39.21-.16.47-.25.75-.25h1.67c.45,0,.87.25,1.09.64-.54.38-1.21.61-1.92.61Zm2.55-1.18c-.38-.55-1.02-.9-1.71-.9h-1.67c-.7,0-1.33.34-1.71.9-.49-.58-.79-1.33-.79-2.15,0-1.84,1.5-3.33,3.33-3.33s3.33,1.5,3.33,3.33c0,.82-.3,1.57-.79,2.15Zm-2.55-1.32c-.92,0-1.67-.75-1.67-1.67s.75-1.67,1.67-1.67,1.67.75,1.67,1.67-.75,1.67-1.67,1.67Zm0-2.5c-.46,0-.83.37-.83.83s.37.83.83.83.83-.37.83-.83-.37-.83-.83-.83Z"/><path class="h" d="m30,180h10v10h-10v-10Z"/><path class="c" d="m35,188.77c-.16,0-.33-.01-.49-.03-.95-.12-1.81-.61-2.4-1.33v.93c0,.23-.19.42-.42.42s-.42-.19-.42-.42v-2.08c0-.23.19-.42.42-.42h.2s.01,0,.02,0h1.87c.23,0,.42.19.42.42s-.19.42-.42.42h-1.18c.46.67,1.2,1.13,2.03,1.24.77.1,1.54-.1,2.16-.58.62-.47,1.01-1.16,1.12-1.93s-.1-1.54-.58-2.16c-.47-.62-1.16-1.01-1.93-1.12-1.59-.21-3.06.92-3.27,2.51-.03.23-.24.39-.47.36-.23-.03-.39-.24-.36-.47.27-2.05,2.16-3.5,4.21-3.23.99.13,1.88.64,2.49,1.43.61.79.87,1.78.74,2.77s-.64,1.88-1.43,2.49c-.66.51-1.46.78-2.28.78Z"/><path class="h" d="m30,170h10v10h-10v-10Z"/><path class="c" d="m38.33,175c-.2,0-.38-.15-.41-.36-.11-.78-.52-1.48-1.15-1.95-.63-.48-1.41-.68-2.19-.57-.81.11-1.54.56-2,1.22h.75c.23,0,.42.19.42.42s-.19.42-.42.42h-1.67c-.23,0-.42-.19-.42-.42v-1.67c0-.23.19-.42.42-.42s.42.19.42.42v.53c.6-.71,1.44-1.19,2.39-1.32,1-.14,2,.12,2.81.73.81.61,1.33,1.5,1.47,2.5.03.23-.13.44-.36.47-.02,0-.04,0-.06,0Zm-2.8,3.71c.94-.13,1.79-.61,2.39-1.32v.53c0,.23.19.42.42.42s.42-.19.42-.42v-1.67c0-.23-.19-.42-.42-.42h-.2s-.01,0-.02,0h-1.45c-.23,0-.42.19-.42.42s.19.42.42.42h.75c-.47.65-1.19,1.1-2,1.22-.78.11-1.56-.09-2.19-.57s-1.04-1.17-1.15-1.95c-.03-.23-.24-.39-.47-.36-.23.03-.39.24-.36.47.14,1,.66,1.89,1.47,2.5.67.5,1.46.77,2.28.77.18,0,.35-.01.53-.04Z"/><path class="h" d="m30,170h10v-10h-10v10Z"/><path class="c" d="m39.04,168.46l-2.25-2.25c.44-.56.7-1.27.7-2.04,0-1.84-1.5-3.33-3.33-3.33s-3.33,1.5-3.33,3.33,1.5,3.33,3.33,3.33c.77,0,1.48-.26,2.04-.7l2.25,2.25c.08.08.19.12.29.12s.21-.04.3-.12c.16-.16.16-.43,0-.59Zm-4.88-1.79c-1.38,0-2.5-1.12-2.5-2.5s1.12-2.5,2.5-2.5,2.5,1.12,2.5,2.5-1.12,2.5-2.5,2.5Z"/><path class="h" d="m30,190h10v10h-10v-10Z"/><path class="c" d="m39.04,194.7l-3.75-3.75c-.16-.16-.42-.16-.59,0l-3.75,3.75c-.12.12-.15.3-.09.45.07.16.22.26.39.26h.42v2.5c0,.69.56,1.25,1.25,1.25h4.17c.69,0,1.25-.56,1.25-1.25v-2.5h.42c.17,0,.32-.1.38-.26.07-.15.03-.33-.09-.45Zm-4.88,3.63v-2.08c0-.23.19-.42.42-.42h.83c.23,0,.42.19.42.42v2.08h-1.67Zm3.59-3.72s-.01,0-.02,0c-.02,0-.03.02-.05.02,0,0-.01,0-.02.01-.02.01-.04.03-.06.05-.02.02-.04.04-.05.06-.01.02-.02.04-.03.06,0,0,0,.01,0,.02,0,.02-.01.04-.02.06,0,.03,0,.05,0,.08v2.92c0,.23-.19.42-.42.42h-.42v-2.08c0-.69-.56-1.25-1.25-1.25h-.83c-.69,0-1.25.56-1.25,1.25v2.08h-.42c-.23,0-.42-.19-.42-.42v-2.92s0-.06,0-.08c0-.02-.01-.04-.02-.06,0,0,0-.02,0-.02,0-.02-.02-.03-.02-.05,0,0,0-.02-.02-.02-.01-.02-.03-.04-.05-.05-.02-.02-.04-.03-.06-.05,0,0,0,0-.02-.01-.02,0-.03-.02-.05-.02,0,0-.01,0-.02,0,0,0,0,0-.01,0l2.77-2.77,2.77,2.77s0,0-.01,0Z"/><path class="c" d="m35.02,158.65c-1.05,0-2.07-.46-2.78-1.3-1.3-1.54-1.1-3.84.43-5.14.98-.83,2.29-1.08,3.51-.67.22.07.34.31.26.53-.07.22-.31.34-.53.26-.94-.31-1.95-.12-2.71.52-1.18,1-1.33,2.78-.33,3.96.75.89,1.94,1.22,3.04.85.22-.07.45.04.53.26.07.22-.04.45-.26.53-.38.13-.78.19-1.17.19Zm3.72-3.73c-.02-.08-.05-.15-.11-.21l-1.47-1.47c-.16-.16-.42-.16-.59,0-.16.16-.16.42,0,.59l.76.76h-2.32c-.23,0-.42.19-.42.42s.19.42.42.42h2.32l-.76.76c-.16.16-.16.43,0,.59.08.08.19.12.3.12s.21-.04.29-.12l1.47-1.47c.06-.06.1-.13.11-.21,0-.03,0-.05,0-.08s0-.06,0-.08Z"/><rect class="h" x="30" y="150" width="10" height="10"/><path class="h" d="m30,100h10v10h-10v-10Z"/><path class="c" d="m37.5,101.67h-.42v-.42c0-.23-.19-.42-.42-.42s-.42.19-.42.42v.42h-2.5v-.42c0-.23-.19-.42-.42-.42s-.42.19-.42.42v.42h-.42c-.69,0-1.25.56-1.25,1.25v5c0,.69.56,1.25,1.25,1.25h5c.69,0,1.25-.56,1.25-1.25v-5c0-.69-.56-1.25-1.25-1.25Zm.42,6.25c0,.23-.19.42-.42.42h-5c-.23,0-.42-.19-.42-.42v-2.92h5.83v2.92Zm0-3.75h-5.83v-1.25c0-.23.19-.42.42-.42h.42v.42c0,.23.19.42.42.42s.42-.19.42-.42v-.42h2.5v.42c0,.23.19.42.42.42s.42-.19.42-.42v-.42h.42c.23,0,.42.19.42.42v1.25Zm-3.75,3.33h-.83c-.23,0-.42-.19-.42-.42v-.83c0-.23.19-.42.42-.42h.83c.23,0,.42.19.42.42v.83c0,.23-.19.42-.42.42Z"/><path class="h" d="m30,150h10v-10h-10v10Z"/><path class="c" d="m37.05,149.11h-5c-.69,0-1.25-.56-1.25-1.25v-5c0-.69.56-1.25,1.25-1.25h2.68c.23,0,.42.19.42.42s-.19.42-.42.42h-2.68c-.23,0-.42.19-.42.42v5c0,.23.19.42.42.42h5c.23,0,.42-.19.42-.42v-2.55c0-.23.19-.42.42-.42s.42.19.42.42v2.55c0,.69-.56,1.25-1.25,1.25Zm2.14-6.62c-.02-.08-.06-.15-.11-.21h0s-1.27-1.27-1.27-1.27c-.16-.16-.43-.16-.59,0-.16.16-.16.43,0,.59l.56.56c-2.13.03-3.86,1.77-3.86,3.91,0,.23.19.42.42.42s.42-.19.42-.42c0-1.68,1.35-3.05,3.02-3.08l-.56.56c-.16.16-.16.42,0,.59.08.08.19.12.29.12s.21-.04.3-.12l1.27-1.27h0c.06-.06.1-.13.11-.21,0-.03,0-.05,0-.08s0-.06,0-.08Z"/><path class="h" d="m30,140h10v-10h-10v10Z"/><path class="c" d="m38.32,133.75c-.23,0-.42-.19-.42-.42v-1.25h-1.25c-.23,0-.42-.19-.42-.42s.19-.42.42-.42h1.67c.23,0,.42.19.42.42v1.67c0,.23-.19.42-.42.42Zm-4.19,2.78l3.32-3.32c.16-.16.16-.43,0-.59s-.43-.16-.59,0l-3.32,3.32c-.16.16-.16.43,0,.59.08.08.19.12.29.12s.21-.04.29-.12Zm4.62.97v-1.72c0-.23-.19-.42-.42-.42s-.42.19-.42.42v1.72c0,.23-.19.42-.42.42h-5c-.23,0-.42-.19-.42-.42v-5c0-.23.19-.42.42-.42h1.85c.23,0,.42-.19.42-.42s-.19-.42-.42-.42h-1.85c-.69,0-1.25.56-1.25,1.25v5c0,.69.56,1.25,1.25,1.25h5c.69,0,1.25-.56,1.25-1.25Z"/><path class="h" d="m40,120h-10s0,10,0,10h10s0-10,0-10Z"/><path class="c" d="m34.68,126.25c-.11,0-.21-.04-.29-.12-.16-.16-.16-.43,0-.59l.54-.54-.54-.54c-.16-.16-.16-.43,0-.59s.43-.16.59,0l.83.83c.16.16.16.43,0,.59l-.83.83c-.08.08-.19.12-.29.12Zm4.48-1.25c0-2.3-1.87-4.17-4.17-4.17s-4.17,1.87-4.17,4.17,1.87,4.17,4.17,4.17,4.17-1.87,4.17-4.17Zm-.83,0c0,1.84-1.5,3.33-3.33,3.33s-3.33-1.5-3.33-3.33,1.5-3.33,3.33-3.33,3.33,1.5,3.33,3.33Z"/><path class="h" d="m30,120h10v-10h-10v10Z"/><path class="c" d="m35.32,116.25c-.11,0-.21-.04-.29-.12l-.83-.83c-.16-.16-.16-.43,0-.59l.83-.83c.16-.16.43-.16.59,0s.16.43,0,.59l-.54.54.54.54c.16.16.16.43,0,.59-.08.08-.19.12-.29.12Zm3.85-1.25c0-2.3-1.87-4.17-4.17-4.17s-4.17,1.87-4.17,4.17,1.87,4.17,4.17,4.17,4.17-1.87,4.17-4.17Zm-.83,0c0,1.84-1.5,3.33-3.33,3.33s-3.33-1.5-3.33-3.33,1.5-3.33,3.33-3.33,3.33,1.5,3.33,3.33Z"/><path class="h" d="m30,90h10v10h-10v-10Z"/><path class="c" d="m35,98.75c-1.84,0-3.33-1.5-3.33-3.33s1.5-3.33,3.33-3.33,3.33,1.5,3.33,3.33-1.5,3.33-3.33,3.33Zm0-5.83c-1.38,0-2.5,1.12-2.5,2.5s1.12,2.5,2.5,2.5,2.5-1.12,2.5-2.5-1.12-2.5-2.5-2.5Zm1.25,2.5c0-.23-.19-.42-.42-.42h-.42v-.83c0-.23-.19-.42-.42-.42s-.42.19-.42.42v1.25c0,.23.19.42.42.42h.83c.23,0,.42-.19.42-.42Zm-4.23-2.58l1.15-.83c.19-.14.23-.4.09-.58-.14-.19-.4-.23-.58-.09l-1.15.83c-.19.14-.23.4-.09.58.08.11.21.17.34.17.08,0,.17-.03.24-.08Zm6.55-.09c.14-.19.09-.45-.09-.58l-1.15-.83c-.19-.14-.45-.09-.58.09-.14.19-.09.45.09.58l1.15.83c.07.05.16.08.24.08.13,0,.26-.06.34-.17Z"/><path class="h" d="m30,80h10v10h-10v-10Z"/><path class="c" d="m38.54,86.72c-.34-.19-.57-.53-.62-.92v-1.24c-.05-1.15-.7-2.19-1.7-2.75-.12-.56-.62-.98-1.22-.98s-1.1.42-1.22.98c-1,.56-1.64,1.6-1.7,2.77v1.23c-.05.38-.29.72-.62.91-.17.09-.25.29-.2.47.05.18.21.31.4.31h1.67c0,.92.75,1.67,1.67,1.67s1.67-.75,1.67-1.67h1.67c.19,0,.36-.13.4-.31.05-.18-.03-.38-.2-.47Zm-3.54,1.61c-.46,0-.83-.37-.83-.83h1.67c0,.46-.37.83-.83.83Zm-2.35-1.67c.14-.24.23-.5.26-.78,0-.02,0-.03,0-.05v-1.23c.04-.93.59-1.75,1.43-2.14.15-.07.24-.22.24-.38,0-.23.19-.42.42-.42s.42.19.42.42c0,.16.09.31.24.38.84.4,1.39,1.22,1.43,2.12v1.25s0,.03,0,.05c.03.28.12.54.26.78h-4.69Zm6.1-3.45c-.16,0-.31-.09-.38-.24-.25-.54-.61-1.02-1.06-1.41-.17-.15-.19-.41-.04-.59.15-.17.41-.19.59-.04.54.47.97,1.04,1.27,1.69.1.21,0,.46-.21.55-.06.03-.12.04-.17.04Zm-7.5,0c-.06,0-.12-.01-.17-.04-.21-.1-.3-.34-.2-.55.3-.65.73-1.22,1.27-1.69.17-.15.44-.13.59.04.15.17.13.44-.04.59-.45.39-.81.87-1.06,1.41-.07.15-.22.24-.38.24Z"/><path class="h" d="m30,70h10v10h-10v-10Z"/><path class="c" d="m38.33,72.5h-1.67v-.83c0-.46-.37-.83-.83-.83h-1.67c-.46,0-.83.37-.83.83v.83h-1.67c-.23,0-.42.19-.42.42s.19.42.42.42h.03l.38,4.58c0,.69.56,1.25,1.25,1.25h3.33c.69,0,1.25-.56,1.25-1.22l.39-4.62h.03c.23,0,.42-.19.42-.42s-.19-.42-.42-.42Zm-4.17-.83h1.67v.83h-1.67v-.83Zm2.92,6.25c0,.23-.19.42-.42.42h-3.33c-.23,0-.42-.19-.42-.45l-.38-4.55h4.93l-.38,4.58Zm-2.92-.42c-.23,0-.42-.19-.42-.42v-2.5c0-.23.19-.42.42-.42s.42.19.42.42v2.5c0,.23-.19.42-.42.42Zm1.67,0c-.23,0-.42-.19-.42-.42v-2.5c0-.23.19-.42.42-.42s.42.19.42.42v2.5c0,.23-.19.42-.42.42Z"/><path class="h" d="m30,60h10v10h-10v-10Z"/><path class="c" d="m36.25,68.75h-3.75c-.69,0-1.25-.56-1.25-1.25v-3.75c0-.69.56-1.25,1.25-1.25h.42c.23,0,.42.19.42.42s-.19.42-.42.42h-.42c-.23,0-.42.19-.42.42v3.75c0,.23.19.42.42.42h3.75c.23,0,.42-.19.42-.42v-.42c0-.23.19-.42.42-.42s.42.19.42.42v.42c0,.69-.56,1.25-1.25,1.25Zm2.92-6.62c0,.34-.13.67-.38.91l-.52.52-.12.12h0l-2.85,2.86c-.08.08-.18.12-.3.12h-1.25c-.23,0-.42-.19-.42-.42v-1.25c0-.11.04-.22.12-.3l2.86-2.85s0,0,0,0l.12-.12.52-.52c.49-.49,1.34-.49,1.82,0,.25.24.38.57.38.91Zm-1.84,1.2l-.65-.65-2.5,2.5v.66h.66l2.5-2.5Zm1.01-1.2c0-.12-.05-.24-.13-.32-.17-.17-.48-.17-.65,0l-.29.29.65.65.29-.29h0c.09-.09.13-.2.13-.32Zm-1.96-.34s-.04.04-.05.06l.12-.12s-.05.03-.07.05Zm1.77,1.89s.04-.03.06-.05c.02-.02.04-.04.05-.07l-.12.12Z"/><path class="h" d="m30,50h10v10h-10v-10Z"/><path class="c" d="m35,50.83c-2.3,0-4.17,1.87-4.17,4.17s1.87,4.17,4.17,4.17,4.17-1.87,4.17-4.17-1.87-4.17-4.17-4.17Zm0,7.5c-1.84,0-3.33-1.5-3.33-3.33s1.5-3.33,3.33-3.33,3.33,1.5,3.33,3.33-1.5,3.33-3.33,3.33Zm1.67-3.33c0,.23-.19.42-.42.42h-.83v.83c0,.23-.19.42-.42.42s-.42-.19-.42-.42v-.83h-.83c-.23,0-.42-.19-.42-.42s.19-.42.42-.42h.83v-.83c0-.23.19-.42.42-.42s.42.19.42.42v.83h.83c.23,0,.42.19.42.42Z"/><path class="h" d="m30,0h10v10h-10V0Z"/><path class="c" d="m35,9.17c-2.3,0-4.17-1.87-4.17-4.17s1.87-4.17,4.17-4.17,4.17,1.87,4.17,4.17-1.87,4.17-4.17,4.17Zm0-7.5c-1.84,0-3.33,1.5-3.33,3.33s1.5,3.33,3.33,3.33,3.33-1.5,3.33-3.33-1.5-3.33-3.33-3.33Zm.42,3.33v-1.67c0-.23-.19-.42-.42-.42s-.42.19-.42.42v1.67c0,.23.19.42.42.42s.42-.19.42-.42Zm0,1.67c0-.23-.19-.42-.42-.42h0c-.23,0-.41.19-.41.42s.19.42.42.42.42-.19.42-.42Z"/><path class="h" d="m30,50h10v-10h-10v10Z"/><path class="c" d="m36.88,41.28c-1.17-.59-2.58-.59-3.75,0-.21.1-.29.35-.18.56.1.2.35.29.56.18.94-.47,2.06-.47,3,0,1.64.83,2.3,2.84,1.48,4.48-.1.21-.02.46.18.56.06.03.12.05.19.05.15,0,.3-.08.37-.23,1.03-2.05.2-4.56-1.85-5.6Zm1.07,6.67h0s.02-.03.03-.04c0,.01-.02.03-.03.04Zm.1-.42s0-.02-.01-.03c0-.01-.01-.03-.02-.04,0-.01-.01-.02-.02-.04-.01-.02-.03-.04-.05-.06h0s-5.28-5.29-5.28-5.29c0,0,0,0-.01,0,0,0,0,0,0,0-.16-.17-.42-.17-.59,0-.79.78-1.24,1.82-1.25,2.94,0,1.11.42,2.16,1.2,2.96.82.83,1.89,1.24,2.97,1.24s2.11-.4,2.92-1.19l.05-.05s.02-.03.03-.04c.02-.03.04-.06.06-.1,0-.02.01-.04.02-.05,0-.03.01-.07.01-.1,0-.04,0-.08-.02-.12Zm-5.45-.17c-.62-.63-.96-1.47-.96-2.37,0-.75.26-1.46.72-2.04l4.68,4.68c-1.32,1.04-3.24.95-4.45-.28Z"/><path class="h" d="m30,40h10v-10h-10v10Z"/><path class="c" d="m35,39.17c-2.3,0-4.17-1.87-4.17-4.17s1.87-4.17,4.17-4.17,4.17,1.87,4.17,4.17-1.87,4.17-4.17,4.17Zm0-7.5c-1.84,0-3.33,1.5-3.33,3.33s1.5,3.33,3.33,3.33,3.33-1.5,3.33-3.33-1.5-3.33-3.33-3.33Zm-.12,4.46l1.67-1.67c.16-.16.16-.43,0-.59s-.43-.16-.59,0l-1.37,1.37-.54-.54c-.16-.16-.43-.16-.59,0s-.16.43,0,.59l.83.83c.08.08.19.12.29.12s.21-.04.29-.12Z"/><path class="h" d="m30,20h10v10h-10v-10Z"/><path class="c" d="m35,29.17c-2.3,0-4.17-1.87-4.17-4.17s1.87-4.17,4.17-4.17,4.17,1.87,4.17,4.17-1.87,4.17-4.17,4.17Zm0-7.5c-1.84,0-3.33,1.5-3.33,3.33s1.5,3.33,3.33,3.33,3.33-1.5,3.33-3.33-1.5-3.33-3.33-3.33Zm1.13,4.46c.16-.16.16-.43,0-.59l-.54-.54.54-.54c.16-.16.16-.43,0-.59s-.43-.16-.59,0l-.54.54-.54-.54c-.16-.16-.43-.16-.59,0s-.16.43,0,.59l.54.54-.54.54c-.16.16-.16.43,0,.59s.43.16.59,0l.54-.54.54.54c.08.08.19.12.29.12s.21-.04.29-.12Z"/><path class="h" d="m30,10h10v10h-10v-10Z"/><path class="c" d="m35,19.17c-2.3,0-4.17-1.87-4.17-4.17s1.87-4.17,4.17-4.17,4.17,1.87,4.17,4.17-1.87,4.17-4.17,4.17Zm0-7.5c-1.84,0-3.33,1.5-3.33,3.33s1.5,3.33,3.33,3.33,3.33-1.5,3.33-3.33-1.5-3.33-3.33-3.33Zm.42,5.42h0c0-.23-.19-.42-.42-.42s-.42.19-.42.42.19.42.42.42.42-.19.42-.42Zm-.39-1.05c.23-.01.41-.21.39-.44,0-.09.05-.18.15-.21.77-.3,1.16-1.16.87-1.94-.14-.37-.42-.67-.79-.83-.37-.16-.77-.17-1.15-.03-.26.1-.49.27-.66.49-.14.18-.1.44.08.58.18.14.44.1.58-.08.08-.1.18-.17.29-.22.17-.06.35-.06.51.01.16.07.29.2.35.37.13.34-.04.73-.37.86-.43.15-.72.58-.69,1.04.01.22.2.39.42.39,0,0,.02,0,.02,0Z"/><path class="h" d="m40,250h10v-10h-10v10Z"/><path class="d" d="m45.83,248.33c-.09,0-.18-.03-.25-.08l-1.67-1.25c-.1-.08-.17-.2-.17-.33v-1.51l-1.97-2.17s-.03-.03-.04-.05c-.12-.19-.17-.41-.13-.63.04-.22.17-.41.35-.53.06-.04.12-.07.19-.09.04-.02.09-.02.14-.02h5.42s.09,0,.14.02c.21.07.38.22.48.43.1.2.11.43.03.64-.02.06-.05.13-.09.19-.01.02-.02.03-.04.05l-1.97,2.17v2.76c0,.16-.09.3-.23.37-.06.03-.12.04-.19.04Zm-1.25-1.88l.83.63v-2.08c0-.1.04-.2.11-.28l2.02-2.22h-5.09l2.02,2.22c.07.08.11.18.11.28v1.46Z"/><path class="h" d="m40,220h10v10h-10v-10Z"/><path class="d" d="m47.5,223.51v.25h-1.25c-.46,0-.83-.38-.83-.83v-1.25h.24l.59.59v.66h.66l.59.59Zm.76-.4s-.03-.04-.05-.06h0s.04.04.05.06Zm.07.23v4.58c0,.69-.56,1.25-1.25,1.25h-4.17c-.69,0-1.25-.56-1.25-1.25v-5.83c0-.69.56-1.25,1.25-1.25h2.92c.11,0,.22.05.3.12l2.08,2.08s.04.04.05.06c.02.03.04.06.05.1.02.04.02.09.02.14Zm-.83.17l-.59-.59-.66-.66-.59-.59h-2.74c-.23,0-.42.19-.42.42v5.83c0,.23.19.42.42.42h4.17c.23,0,.42-.19.42-.42v-4.41Zm-2.92.24c0-.23-.19-.42-.42-.42h-.42c-.23,0-.42.19-.42.42s.19.42.42.42h.42c.23,0,.42-.19.42-.42Zm2.08,1.67c0-.23-.19-.42-.42-.42h-2.5c-.23,0-.42.19-.42.42s.19.42.42.42h2.5c.23,0,.42-.19.42-.42Zm0,1.67c0-.23-.19-.42-.42-.42h-2.5c-.23,0-.42.19-.42.42s.19.42.42.42h2.5c.23,0,.42-.19.42-.42Z"/><path class="h" d="m40,230h10v10h-10v-10Z"/><path class="d" d="m47.5,239.17h-5c-.69,0-1.25-.56-1.25-1.25v-.83c0-.23.19-.42.42-.42s.42.19.42.42v.83c0,.23.19.42.42.42h5c.23,0,.42-.19.42-.42v-.83c0-.23.19-.42.42-.42s.42.19.42.42v.83c0,.69-.56,1.25-1.25,1.25Zm-.12-4.88c-.16-.16-.43-.16-.59,0l-1.37,1.37v-3.99c0-.23-.19-.42-.42-.42s-.42.19-.42.42v4l-1.37-1.37c-.16-.16-.42-.16-.59,0-.16.16-.16.42,0,.59l2.08,2.08s.02.02.04.03c.05.04.11.07.17.08.03,0,.05,0,.08,0s.06,0,.08,0c.06-.01.12-.04.17-.08.01,0,.03-.02.04-.03l2.08-2.08c.16-.16.16-.43,0-.59Z"/><path class="h" d="m40,210h10v10h-10v-10Z"/><path class="d" d="m45,219.17h0c-.53,0-.98-.35-1.1-.87-.02-.08-.07-.14-.14-.19-.07-.04-.15-.05-.23-.04-.03,0-.06.02-.09.04-.46.28-1.02.21-1.39-.17-.38-.38-.44-.94-.17-1.39.04-.07.05-.15.04-.23-.02-.08-.07-.14-.14-.19-.03-.02-.05-.03-.09-.03-.52-.13-.87-.57-.87-1.1s.35-.98.87-1.1c.08-.02.14-.07.19-.14.04-.07.05-.15.04-.23,0-.03-.02-.06-.04-.09-.28-.46-.21-1.02.17-1.39.38-.38.94-.44,1.39-.17.08.05.18.06.27.02.09-.04.15-.11.18-.21h0c.13-.52.57-.87,1.1-.87h0c.53,0,.98.35,1.1.87.02.08.07.15.14.19.07.04.15.05.23.04.03,0,.06-.02.09-.04.46-.28,1.02-.21,1.39.17s.44.94.17,1.39c-.09.14-.04.33.1.41.03.02.05.03.09.03.52.13.87.57.87,1.1s-.35.98-.87,1.1c-.08.02-.14.07-.19.14-.04.07-.05.15-.04.23,0,.03.02.06.04.09.28.46.21,1.02-.17,1.39-.38.38-.94.44-1.39.17-.07-.04-.15-.06-.23-.04-.08.02-.14.07-.19.14-.02.03-.03.06-.04.09-.13.52-.57.87-1.1.87Zm-1.39-1.93c.21,0,.41.06.59.17.26.16.44.41.51.7.05.21.24.23.29.23h0c.06,0,.24-.02.29-.23.03-.11.07-.22.13-.32.16-.26.41-.44.7-.51.3-.07.6-.02.86.13.19.11.33,0,.37-.04.04-.04.16-.18.04-.37-.06-.1-.11-.21-.13-.32-.07-.29-.02-.6.13-.86.16-.26.41-.44.7-.51.21-.05.23-.24.23-.29s-.02-.24-.23-.29c-.11-.03-.22-.07-.32-.13-.54-.33-.71-1.03-.38-1.56.11-.19,0-.33-.04-.37-.04-.04-.18-.16-.37-.04-.1.06-.21.11-.32.13-.29.07-.6.02-.86-.13-.26-.16-.44-.41-.51-.7-.05-.21-.24-.23-.29-.23-.06,0-.24.02-.29.23h0c-.09.36-.33.64-.67.78s-.71.11-1.02-.08c-.19-.11-.33,0-.37.04s-.16.18-.04.37c.06.1.11.21.13.32.07.29.02.6-.13.86s-.41.44-.7.51c-.21.05-.23.24-.23.29s.02.24.23.29c.11.03.22.07.32.13.26.16.44.41.51.7s.02.6-.13.86c-.11.19,0,.33.04.37.04.04.18.16.37.04.1-.06.21-.11.32-.13.09-.02.18-.03.27-.03Zm.7-5.44h0,0Zm.7,4.87c-.92,0-1.67-.75-1.67-1.67s.75-1.67,1.67-1.67,1.67.75,1.67,1.67-.75,1.67-1.67,1.67Zm0-2.5c-.46,0-.83.37-.83.83s.37.83.83.83.83-.37.83-.83-.37-.83-.83-.83Z"/><path class="h" d="m40,200h10v10h-10v-10Z"/><path class="d" d="m45,200.83c-2.3,0-4.17,1.87-4.17,4.17,0,1.26.56,2.39,1.45,3.15.01.01.02.02.04.03.73.61,1.66.98,2.68.98s1.95-.37,2.67-.97c.02-.01.04-.03.05-.05.88-.76,1.44-1.89,1.44-3.15,0-2.3-1.87-4.17-4.17-4.17Zm0,7.5c-.72,0-1.38-.23-1.92-.61.08-.15.2-.29.34-.39.21-.16.47-.25.75-.25h1.67c.45,0,.87.25,1.09.64-.54.38-1.21.61-1.92.61Zm2.55-1.18c-.38-.55-1.02-.9-1.71-.9h-1.67c-.7,0-1.33.34-1.71.9-.49-.58-.79-1.33-.79-2.15,0-1.84,1.5-3.33,3.33-3.33s3.33,1.5,3.33,3.33c0,.82-.3,1.57-.79,2.15Zm-2.55-1.32c-.92,0-1.67-.75-1.67-1.67s.75-1.67,1.67-1.67,1.67.75,1.67,1.67-.75,1.67-1.67,1.67Zm0-2.5c-.46,0-.83.37-.83.83s.37.83.83.83.83-.37.83-.83-.37-.83-.83-.83Z"/><path class="h" d="m40,180h10v10h-10v-10Z"/><path class="d" d="m45,188.77c-.16,0-.33-.01-.49-.03-.95-.12-1.81-.61-2.4-1.33v.93c0,.23-.19.42-.42.42s-.42-.19-.42-.42v-2.08c0-.23.19-.42.42-.42h.2s.01,0,.02,0h1.87c.23,0,.42.19.42.42s-.19.42-.42.42h-1.18c.46.67,1.2,1.13,2.03,1.24.77.1,1.54-.1,2.16-.58.62-.47,1.01-1.16,1.12-1.93s-.1-1.54-.58-2.16c-.47-.62-1.16-1.01-1.93-1.12-1.59-.21-3.06.92-3.27,2.51-.03.23-.24.39-.47.36-.23-.03-.39-.24-.36-.47.27-2.05,2.16-3.5,4.21-3.23.99.13,1.88.64,2.49,1.43.61.79.87,1.78.74,2.77s-.64,1.88-1.43,2.49c-.66.51-1.46.78-2.28.78Z"/><path class="h" d="m40,170h10v10h-10v-10Z"/><path class="d" d="m48.33,175c-.2,0-.38-.15-.41-.36-.11-.78-.52-1.48-1.15-1.95-.63-.48-1.41-.68-2.19-.57-.81.11-1.54.56-2,1.22h.75c.23,0,.42.19.42.42s-.19.42-.42.42h-1.67c-.23,0-.42-.19-.42-.42v-1.67c0-.23.19-.42.42-.42s.42.19.42.42v.53c.6-.71,1.44-1.19,2.39-1.32,1-.14,2,.12,2.81.73.81.61,1.33,1.5,1.47,2.5.03.23-.13.44-.36.47-.02,0-.04,0-.06,0Zm-2.8,3.71c.94-.13,1.79-.61,2.39-1.32v.53c0,.23.19.42.42.42s.42-.19.42-.42v-1.67c0-.23-.19-.42-.42-.42h-.2s-.01,0-.02,0h-1.45c-.23,0-.42.19-.42.42s.19.42.42.42h.75c-.47.65-1.19,1.1-2,1.22-.78.11-1.56-.09-2.19-.57s-1.04-1.17-1.15-1.95c-.03-.23-.24-.39-.47-.36-.23.03-.39.24-.36.47.14,1,.66,1.89,1.47,2.5.67.5,1.46.77,2.28.77.18,0,.35-.01.53-.04Z"/><path class="h" d="m40,170h10v-10h-10v10Z"/><path class="d" d="m49.04,168.46l-2.25-2.25c.44-.56.7-1.27.7-2.04,0-1.84-1.5-3.33-3.33-3.33s-3.33,1.5-3.33,3.33,1.5,3.33,3.33,3.33c.77,0,1.48-.26,2.04-.7l2.25,2.25c.08.08.19.12.29.12s.21-.04.3-.12c.16-.16.16-.43,0-.59Zm-4.88-1.79c-1.38,0-2.5-1.12-2.5-2.5s1.12-2.5,2.5-2.5,2.5,1.12,2.5,2.5-1.12,2.5-2.5,2.5Z"/><path class="h" d="m40,190h10v10h-10v-10Z"/><path class="d" d="m49.04,194.7l-3.75-3.75c-.16-.16-.42-.16-.59,0l-3.75,3.75c-.12.12-.15.3-.09.45.07.16.22.26.39.26h.42v2.5c0,.69.56,1.25,1.25,1.25h4.17c.69,0,1.25-.56,1.25-1.25v-2.5h.42c.17,0,.32-.1.38-.26.07-.15.03-.33-.09-.45Zm-4.88,3.63v-2.08c0-.23.19-.42.42-.42h.83c.23,0,.42.19.42.42v2.08h-1.67Zm3.59-3.72s-.01,0-.02,0c-.02,0-.03.02-.05.02,0,0-.01,0-.02.01-.02.01-.04.03-.06.05-.02.02-.04.04-.05.06-.01.02-.02.04-.03.06,0,0,0,.01,0,.02,0,.02-.01.04-.02.06,0,.03,0,.05,0,.08v2.92c0,.23-.19.42-.42.42h-.42v-2.08c0-.69-.56-1.25-1.25-1.25h-.83c-.69,0-1.25.56-1.25,1.25v2.08h-.42c-.23,0-.42-.19-.42-.42v-2.92s0-.06,0-.08c0-.02-.01-.04-.02-.06,0,0,0-.02,0-.02,0-.02-.02-.03-.02-.05,0,0,0-.02-.02-.02-.01-.02-.03-.04-.05-.05-.02-.02-.04-.03-.06-.05,0,0,0,0-.02-.01-.02,0-.03-.02-.05-.02,0,0-.01,0-.02,0,0,0,0,0-.01,0l2.77-2.77,2.77,2.77s0,0-.01,0Z"/><path class="d" d="m45.02,158.65c-1.05,0-2.07-.46-2.78-1.3-1.3-1.54-1.1-3.84.43-5.14.98-.83,2.29-1.08,3.51-.67.22.07.34.31.26.53-.07.22-.31.34-.53.26-.94-.31-1.95-.12-2.71.52-1.18,1-1.33,2.78-.33,3.96.75.89,1.94,1.22,3.04.85.22-.07.45.04.53.26.07.22-.04.45-.26.53-.38.13-.78.19-1.17.19Zm3.72-3.73c-.02-.08-.05-.15-.11-.21l-1.47-1.47c-.16-.16-.42-.16-.59,0-.16.16-.16.42,0,.59l.76.76h-2.32c-.23,0-.42.19-.42.42s.19.42.42.42h2.32l-.76.76c-.16.16-.16.43,0,.59.08.08.19.12.3.12s.21-.04.29-.12l1.47-1.47c.06-.06.1-.13.11-.21,0-.03,0-.05,0-.08s0-.06,0-.08Z"/><rect class="h" x="40" y="150" width="10" height="10"/><path class="h" d="m40,100h10v10h-10v-10Z"/><path class="d" d="m47.5,101.67h-.42v-.42c0-.23-.19-.42-.42-.42s-.42.19-.42.42v.42h-2.5v-.42c0-.23-.19-.42-.42-.42s-.42.19-.42.42v.42h-.42c-.69,0-1.25.56-1.25,1.25v5c0,.69.56,1.25,1.25,1.25h5c.69,0,1.25-.56,1.25-1.25v-5c0-.69-.56-1.25-1.25-1.25Zm.42,6.25c0,.23-.19.42-.42.42h-5c-.23,0-.42-.19-.42-.42v-2.92h5.83v2.92Zm0-3.75h-5.83v-1.25c0-.23.19-.42.42-.42h.42v.42c0,.23.19.42.42.42s.42-.19.42-.42v-.42h2.5v.42c0,.23.19.42.42.42s.42-.19.42-.42v-.42h.42c.23,0,.42.19.42.42v1.25Zm-3.75,3.33h-.83c-.23,0-.42-.19-.42-.42v-.83c0-.23.19-.42.42-.42h.83c.23,0,.42.19.42.42v.83c0,.23-.19.42-.42.42Z"/><path class="h" d="m40,150h10v-10h-10v10Z"/><path class="d" d="m47.05,149.11h-5c-.69,0-1.25-.56-1.25-1.25v-5c0-.69.56-1.25,1.25-1.25h2.68c.23,0,.42.19.42.42s-.19.42-.42.42h-2.68c-.23,0-.42.19-.42.42v5c0,.23.19.42.42.42h5c.23,0,.42-.19.42-.42v-2.55c0-.23.19-.42.42-.42s.42.19.42.42v2.55c0,.69-.56,1.25-1.25,1.25Zm2.14-6.62c-.02-.08-.06-.15-.11-.21h0s-1.27-1.27-1.27-1.27c-.16-.16-.43-.16-.59,0-.16.16-.16.43,0,.59l.56.56c-2.13.03-3.86,1.77-3.86,3.91,0,.23.19.42.42.42s.42-.19.42-.42c0-1.68,1.35-3.05,3.02-3.08l-.56.56c-.16.16-.16.42,0,.59.08.08.19.12.29.12s.21-.04.3-.12l1.27-1.27h0c.06-.06.1-.13.11-.21,0-.03,0-.05,0-.08s0-.06,0-.08Z"/><path class="h" d="m40,140h10v-10h-10v10Z"/><path class="d" d="m48.32,133.75c-.23,0-.42-.19-.42-.42v-1.25h-1.25c-.23,0-.42-.19-.42-.42s.19-.42.42-.42h1.67c.23,0,.42.19.42.42v1.67c0,.23-.19.42-.42.42Zm-4.19,2.78l3.32-3.32c.16-.16.16-.43,0-.59s-.43-.16-.59,0l-3.32,3.32c-.16.16-.16.43,0,.59.08.08.19.12.29.12s.21-.04.29-.12Zm4.62.97v-1.72c0-.23-.19-.42-.42-.42s-.42.19-.42.42v1.72c0,.23-.19.42-.42.42h-5c-.23,0-.42-.19-.42-.42v-5c0-.23.19-.42.42-.42h1.85c.23,0,.42-.19.42-.42s-.19-.42-.42-.42h-1.85c-.69,0-1.25.56-1.25,1.25v5c0,.69.56,1.25,1.25,1.25h5c.69,0,1.25-.56,1.25-1.25Z"/><path class="h" d="m50,120h-10s0,10,0,10h10s0-10,0-10Z"/><path class="d" d="m44.68,126.25c-.11,0-.21-.04-.29-.12-.16-.16-.16-.43,0-.59l.54-.54-.54-.54c-.16-.16-.16-.43,0-.59s.43-.16.59,0l.83.83c.16.16.16.43,0,.59l-.83.83c-.08.08-.19.12-.29.12Zm4.48-1.25c0-2.3-1.87-4.17-4.17-4.17s-4.17,1.87-4.17,4.17,1.87,4.17,4.17,4.17,4.17-1.87,4.17-4.17Zm-.83,0c0,1.84-1.5,3.33-3.33,3.33s-3.33-1.5-3.33-3.33,1.5-3.33,3.33-3.33,3.33,1.5,3.33,3.33Z"/><path class="h" d="m40,120h10v-10h-10v10Z"/><path class="d" d="m45.32,116.25c-.11,0-.21-.04-.29-.12l-.83-.83c-.16-.16-.16-.43,0-.59l.83-.83c.16-.16.43-.16.59,0s.16.43,0,.59l-.54.54.54.54c.16.16.16.43,0,.59-.08.08-.19.12-.29.12Zm3.85-1.25c0-2.3-1.87-4.17-4.17-4.17s-4.17,1.87-4.17,4.17,1.87,4.17,4.17,4.17,4.17-1.87,4.17-4.17Zm-.83,0c0,1.84-1.5,3.33-3.33,3.33s-3.33-1.5-3.33-3.33,1.5-3.33,3.33-3.33,3.33,1.5,3.33,3.33Z"/><path class="h" d="m40,90h10v10h-10v-10Z"/><path class="d" d="m45,98.75c-1.84,0-3.33-1.5-3.33-3.33s1.5-3.33,3.33-3.33,3.33,1.5,3.33,3.33-1.5,3.33-3.33,3.33Zm0-5.83c-1.38,0-2.5,1.12-2.5,2.5s1.12,2.5,2.5,2.5,2.5-1.12,2.5-2.5-1.12-2.5-2.5-2.5Zm1.25,2.5c0-.23-.19-.42-.42-.42h-.42v-.83c0-.23-.19-.42-.42-.42s-.42.19-.42.42v1.25c0,.23.19.42.42.42h.83c.23,0,.42-.19.42-.42Zm-4.23-2.58l1.15-.83c.19-.14.23-.4.09-.58-.14-.19-.4-.23-.58-.09l-1.15.83c-.19.14-.23.4-.09.58.08.11.21.17.34.17.08,0,.17-.03.24-.08Zm6.55-.09c.14-.19.09-.45-.09-.58l-1.15-.83c-.19-.14-.45-.09-.58.09-.14.19-.09.45.09.58l1.15.83c.07.05.16.08.24.08.13,0,.26-.06.34-.17Z"/><path class="h" d="m40,80h10v10h-10v-10Z"/><path class="d" d="m48.54,86.72c-.34-.19-.57-.53-.62-.92v-1.24c-.05-1.15-.7-2.19-1.7-2.75-.12-.56-.62-.98-1.22-.98s-1.1.42-1.22.98c-1,.56-1.64,1.6-1.7,2.77v1.23c-.05.38-.29.72-.62.91-.17.09-.25.29-.2.47.05.18.21.31.4.31h1.67c0,.92.75,1.67,1.67,1.67s1.67-.75,1.67-1.67h1.67c.19,0,.36-.13.4-.31.05-.18-.03-.38-.2-.47Zm-3.54,1.61c-.46,0-.83-.37-.83-.83h1.67c0,.46-.37.83-.83.83Zm-2.35-1.67c.14-.24.23-.5.26-.78,0-.02,0-.03,0-.05v-1.23c.04-.93.59-1.75,1.43-2.14.15-.07.24-.22.24-.38,0-.23.19-.42.42-.42s.42.19.42.42c0,.16.09.31.24.38.84.4,1.39,1.22,1.43,2.12v1.25s0,.03,0,.05c.03.28.12.54.26.78h-4.69Zm6.1-3.45c-.16,0-.31-.09-.38-.24-.25-.54-.61-1.02-1.06-1.41-.17-.15-.19-.41-.04-.59.15-.17.41-.19.59-.04.54.47.97,1.04,1.27,1.69.1.21,0,.46-.21.55-.06.03-.12.04-.17.04Zm-7.5,0c-.06,0-.12-.01-.17-.04-.21-.1-.3-.34-.2-.55.3-.65.73-1.22,1.27-1.69.17-.15.44-.13.59.04.15.17.13.44-.04.59-.45.39-.81.87-1.06,1.41-.07.15-.22.24-.38.24Z"/><path class="h" d="m40,70h10v10h-10v-10Z"/><path class="d" d="m48.33,72.5h-1.67v-.83c0-.46-.37-.83-.83-.83h-1.67c-.46,0-.83.37-.83.83v.83h-1.67c-.23,0-.42.19-.42.42s.19.42.42.42h.03l.38,4.58c0,.69.56,1.25,1.25,1.25h3.33c.69,0,1.25-.56,1.25-1.22l.39-4.62h.03c.23,0,.42-.19.42-.42s-.19-.42-.42-.42Zm-4.17-.83h1.67v.83h-1.67v-.83Zm2.92,6.25c0,.23-.19.42-.42.42h-3.33c-.23,0-.42-.19-.42-.45l-.38-4.55h4.93l-.38,4.58Zm-2.92-.42c-.23,0-.42-.19-.42-.42v-2.5c0-.23.19-.42.42-.42s.42.19.42.42v2.5c0,.23-.19.42-.42.42Zm1.67,0c-.23,0-.42-.19-.42-.42v-2.5c0-.23.19-.42.42-.42s.42.19.42.42v2.5c0,.23-.19.42-.42.42Z"/><path class="h" d="m40,60h10v10h-10v-10Z"/><path class="d" d="m46.25,68.75h-3.75c-.69,0-1.25-.56-1.25-1.25v-3.75c0-.69.56-1.25,1.25-1.25h.42c.23,0,.42.19.42.42s-.19.42-.42.42h-.42c-.23,0-.42.19-.42.42v3.75c0,.23.19.42.42.42h3.75c.23,0,.42-.19.42-.42v-.42c0-.23.19-.42.42-.42s.42.19.42.42v.42c0,.69-.56,1.25-1.25,1.25Zm2.92-6.62c0,.34-.13.67-.38.91l-.52.52-.12.12h0l-2.85,2.86c-.08.08-.18.12-.3.12h-1.25c-.23,0-.42-.19-.42-.42v-1.25c0-.11.04-.22.12-.3l2.86-2.85s0,0,0,0l.12-.12.52-.52c.49-.49,1.34-.49,1.82,0,.25.24.38.57.38.91Zm-1.84,1.2l-.65-.65-2.5,2.5v.66h.66l2.5-2.5Zm1.01-1.2c0-.12-.05-.24-.13-.32-.17-.17-.48-.17-.65,0l-.29.29.65.65.29-.29h0c.09-.09.13-.2.13-.32Zm-1.96-.34s-.04.04-.05.06l.12-.12s-.05.03-.07.05Zm1.77,1.89s.04-.03.06-.05c.02-.02.04-.04.05-.07l-.12.12Z"/><path class="h" d="m40,50h10v10h-10v-10Z"/><path class="d" d="m45,50.83c-2.3,0-4.17,1.87-4.17,4.17s1.87,4.17,4.17,4.17,4.17-1.87,4.17-4.17-1.87-4.17-4.17-4.17Zm0,7.5c-1.84,0-3.33-1.5-3.33-3.33s1.5-3.33,3.33-3.33,3.33,1.5,3.33,3.33-1.5,3.33-3.33,3.33Zm1.67-3.33c0,.23-.19.42-.42.42h-.83v.83c0,.23-.19.42-.42.42s-.42-.19-.42-.42v-.83h-.83c-.23,0-.42-.19-.42-.42s.19-.42.42-.42h.83v-.83c0-.23.19-.42.42-.42s.42.19.42.42v.83h.83c.23,0,.42.19.42.42Z"/><path class="h" d="m40,0h10v10h-10V0Z"/><path class="d" d="m45,9.17c-2.3,0-4.17-1.87-4.17-4.17s1.87-4.17,4.17-4.17,4.17,1.87,4.17,4.17-1.87,4.17-4.17,4.17Zm0-7.5c-1.84,0-3.33,1.5-3.33,3.33s1.5,3.33,3.33,3.33,3.33-1.5,3.33-3.33-1.5-3.33-3.33-3.33Zm.42,3.33v-1.67c0-.23-.19-.42-.42-.42s-.42.19-.42.42v1.67c0,.23.19.42.42.42s.42-.19.42-.42Zm0,1.67c0-.23-.19-.42-.42-.42h0c-.23,0-.41.19-.41.42s.19.42.42.42.42-.19.42-.42Z"/><path class="h" d="m40,50h10v-10h-10v10Z"/><path class="d" d="m46.88,41.28c-1.17-.59-2.58-.59-3.75,0-.21.1-.29.35-.18.56.1.2.35.29.56.18.94-.47,2.06-.47,3,0,1.64.83,2.3,2.84,1.48,4.48-.1.21-.02.46.18.56.06.03.12.05.19.05.15,0,.3-.08.37-.23,1.03-2.05.2-4.56-1.85-5.6Zm1.07,6.67h0s.02-.03.03-.04c0,.01-.02.03-.03.04Zm.1-.42s0-.02-.01-.03c0-.01-.01-.03-.02-.04,0-.01-.01-.02-.02-.04-.01-.02-.03-.04-.05-.06h0s-5.28-5.29-5.28-5.29c0,0,0,0-.01,0,0,0,0,0,0,0-.16-.17-.42-.17-.59,0-.79.78-1.24,1.82-1.25,2.94,0,1.11.42,2.16,1.2,2.96.82.83,1.89,1.24,2.97,1.24s2.11-.4,2.92-1.19l.05-.05s.02-.03.03-.04c.02-.03.04-.06.06-.1,0-.02.01-.04.02-.05,0-.03.01-.07.01-.1,0-.04,0-.08-.02-.12Zm-5.45-.17c-.62-.63-.96-1.47-.96-2.37,0-.75.26-1.46.72-2.04l4.68,4.68c-1.32,1.04-3.24.95-4.45-.28Z"/><path class="h" d="m40,40h10v-10h-10v10Z"/><path class="d" d="m45,39.17c-2.3,0-4.17-1.87-4.17-4.17s1.87-4.17,4.17-4.17,4.17,1.87,4.17,4.17-1.87,4.17-4.17,4.17Zm0-7.5c-1.84,0-3.33,1.5-3.33,3.33s1.5,3.33,3.33,3.33,3.33-1.5,3.33-3.33-1.5-3.33-3.33-3.33Zm-.12,4.46l1.67-1.67c.16-.16.16-.43,0-.59s-.43-.16-.59,0l-1.37,1.37-.54-.54c-.16-.16-.43-.16-.59,0s-.16.43,0,.59l.83.83c.08.08.19.12.29.12s.21-.04.29-.12Z"/><path class="h" d="m40,20h10v10h-10v-10Z"/><path class="d" d="m45,29.17c-2.3,0-4.17-1.87-4.17-4.17s1.87-4.17,4.17-4.17,4.17,1.87,4.17,4.17-1.87,4.17-4.17,4.17Zm0-7.5c-1.84,0-3.33,1.5-3.33,3.33s1.5,3.33,3.33,3.33,3.33-1.5,3.33-3.33-1.5-3.33-3.33-3.33Zm1.13,4.46c.16-.16.16-.43,0-.59l-.54-.54.54-.54c.16-.16.16-.43,0-.59s-.43-.16-.59,0l-.54.54-.54-.54c-.16-.16-.43-.16-.59,0s-.16.43,0,.59l.54.54-.54.54c-.16.16-.16.43,0,.59s.43.16.59,0l.54-.54.54.54c.08.08.19.12.29.12s.21-.04.29-.12Z"/><path class="h" d="m40,10h10v10h-10v-10Z"/><path class="d" d="m45,19.17c-2.3,0-4.17-1.87-4.17-4.17s1.87-4.17,4.17-4.17,4.17,1.87,4.17,4.17-1.87,4.17-4.17,4.17Zm0-7.5c-1.84,0-3.33,1.5-3.33,3.33s1.5,3.33,3.33,3.33,3.33-1.5,3.33-3.33-1.5-3.33-3.33-3.33Zm.42,5.42h0c0-.23-.19-.42-.42-.42s-.42.19-.42.42.19.42.42.42.42-.19.42-.42Zm-.39-1.05c.23-.01.41-.21.39-.44,0-.09.05-.18.15-.21.77-.3,1.16-1.16.87-1.94-.14-.37-.42-.67-.79-.83-.37-.16-.77-.17-1.15-.03-.26.1-.49.27-.66.49-.14.18-.1.44.08.58.18.14.44.1.58-.08.08-.1.18-.17.29-.22.17-.06.35-.06.51.01.16.07.29.2.35.37.13.34-.04.73-.37.86-.43.15-.72.58-.69,1.04.01.22.2.39.42.39,0,0,.02,0,.02,0Z"/><path class="h" d="m50,250h10v-10h-10v10Z"/><path class="g" d="m55.83,248.33c-.09,0-.18-.03-.25-.08l-1.67-1.25c-.1-.08-.17-.2-.17-.33v-1.51l-1.97-2.17s-.03-.03-.04-.05c-.12-.19-.17-.41-.13-.63.04-.22.17-.41.35-.53.06-.04.12-.07.19-.09.04-.02.09-.02.14-.02h5.42s.09,0,.14.02c.21.07.38.22.48.43.1.2.11.43.03.64-.02.06-.05.13-.09.19-.01.02-.02.03-.04.05l-1.97,2.17v2.76c0,.16-.09.3-.23.37-.06.03-.12.04-.19.04Zm-1.25-1.88l.83.63v-2.08c0-.1.04-.2.11-.28l2.02-2.22h-5.09l2.02,2.22c.07.08.11.18.11.28v1.46Z"/><path class="h" d="m50,220h10v10h-10v-10Z"/><path class="g" d="m57.5,223.51v.25h-1.25c-.46,0-.83-.38-.83-.83v-1.25h.24l.59.59v.66h.66l.59.59Zm.76-.4s-.03-.04-.05-.06h0s.04.04.05.06Zm.07.23v4.58c0,.69-.56,1.25-1.25,1.25h-4.17c-.69,0-1.25-.56-1.25-1.25v-5.83c0-.69.56-1.25,1.25-1.25h2.92c.11,0,.22.05.3.12l2.08,2.08s.04.04.05.06c.02.03.04.06.05.1.02.04.02.09.02.14Zm-.83.17l-.59-.59-.66-.66-.59-.59h-2.74c-.23,0-.42.19-.42.42v5.83c0,.23.19.42.42.42h4.17c.23,0,.42-.19.42-.42v-4.41Zm-2.92.24c0-.23-.19-.42-.42-.42h-.42c-.23,0-.42.19-.42.42s.19.42.42.42h.42c.23,0,.42-.19.42-.42Zm2.08,1.67c0-.23-.19-.42-.42-.42h-2.5c-.23,0-.42.19-.42.42s.19.42.42.42h2.5c.23,0,.42-.19.42-.42Zm0,1.67c0-.23-.19-.42-.42-.42h-2.5c-.23,0-.42.19-.42.42s.19.42.42.42h2.5c.23,0,.42-.19.42-.42Z"/><path class="h" d="m50,230h10v10h-10v-10Z"/><path class="g" d="m57.5,239.17h-5c-.69,0-1.25-.56-1.25-1.25v-.83c0-.23.19-.42.42-.42s.42.19.42.42v.83c0,.23.19.42.42.42h5c.23,0,.42-.19.42-.42v-.83c0-.23.19-.42.42-.42s.42.19.42.42v.83c0,.69-.56,1.25-1.25,1.25Zm-.12-4.88c-.16-.16-.43-.16-.59,0l-1.37,1.37v-3.99c0-.23-.19-.42-.42-.42s-.42.19-.42.42v4l-1.37-1.37c-.16-.16-.42-.16-.59,0-.16.16-.16.42,0,.59l2.08,2.08s.02.02.04.03c.05.04.11.07.17.08.03,0,.05,0,.08,0s.06,0,.08,0c.06-.01.12-.04.17-.08.01,0,.03-.02.04-.03l2.08-2.08c.16-.16.16-.43,0-.59Z"/><path class="h" d="m50,210h10v10h-10v-10Z"/><path class="g" d="m55,219.17h0c-.53,0-.98-.35-1.1-.87-.02-.08-.07-.14-.14-.19-.07-.04-.15-.05-.23-.04-.03,0-.06.02-.09.04-.46.28-1.02.21-1.39-.17-.38-.38-.44-.94-.17-1.39.04-.07.05-.15.04-.23-.02-.08-.07-.14-.14-.19-.03-.02-.05-.03-.09-.03-.52-.13-.87-.57-.87-1.1s.35-.98.87-1.1c.08-.02.14-.07.19-.14.04-.07.05-.15.04-.23,0-.03-.02-.06-.04-.09-.28-.46-.21-1.02.17-1.39.38-.38.94-.44,1.39-.17.08.05.18.06.27.02.09-.04.15-.11.18-.21h0c.13-.52.57-.87,1.1-.87h0c.53,0,.98.35,1.1.87.02.08.07.15.14.19.07.04.15.05.23.04.03,0,.06-.02.09-.04.46-.28,1.02-.21,1.39.17s.44.94.17,1.39c-.09.14-.04.33.1.41.03.02.05.03.09.03.52.13.87.57.87,1.1s-.35.98-.87,1.1c-.08.02-.14.07-.19.14-.04.07-.05.15-.04.23,0,.03.02.06.04.09.28.46.21,1.02-.17,1.39-.38.38-.94.44-1.39.17-.07-.04-.15-.06-.23-.04-.08.02-.14.07-.19.14-.02.03-.03.06-.04.09-.13.52-.57.87-1.1.87Zm-1.39-1.93c.21,0,.41.06.59.17.26.16.44.41.51.7.05.21.24.23.29.23h0c.06,0,.24-.02.29-.23.03-.11.07-.22.13-.32.16-.26.41-.44.7-.51.3-.07.6-.02.86.13.19.11.33,0,.37-.04.04-.04.16-.18.04-.37-.06-.1-.11-.21-.13-.32-.07-.29-.02-.6.13-.86.16-.26.41-.44.7-.51.21-.05.23-.24.23-.29s-.02-.24-.23-.29c-.11-.03-.22-.07-.32-.13-.54-.33-.71-1.03-.38-1.56.11-.19,0-.33-.04-.37-.04-.04-.18-.16-.37-.04-.1.06-.21.11-.32.13-.29.07-.6.02-.86-.13-.26-.16-.44-.41-.51-.7-.05-.21-.24-.23-.29-.23-.06,0-.24.02-.29.23h0c-.09.36-.33.64-.67.78s-.71.11-1.02-.08c-.19-.11-.33,0-.37.04s-.16.18-.04.37c.06.1.11.21.13.32.07.29.02.6-.13.86s-.41.44-.7.51c-.21.05-.23.24-.23.29s.02.24.23.29c.11.03.22.07.32.13.26.16.44.41.51.7s.02.6-.13.86c-.11.19,0,.33.04.37.04.04.18.16.37.04.1-.06.21-.11.32-.13.09-.02.18-.03.27-.03Zm.7-5.44h0,0Zm.7,4.87c-.92,0-1.67-.75-1.67-1.67s.75-1.67,1.67-1.67,1.67.75,1.67,1.67-.75,1.67-1.67,1.67Zm0-2.5c-.46,0-.83.37-.83.83s.37.83.83.83.83-.37.83-.83-.37-.83-.83-.83Z"/><path class="h" d="m50,200h10v10h-10v-10Z"/><path class="g" d="m55,200.83c-2.3,0-4.17,1.87-4.17,4.17,0,1.26.56,2.39,1.45,3.15.01.01.02.02.04.03.73.61,1.66.98,2.68.98s1.95-.37,2.67-.97c.02-.01.04-.03.05-.05.88-.76,1.44-1.89,1.44-3.15,0-2.3-1.87-4.17-4.17-4.17Zm0,7.5c-.72,0-1.38-.23-1.92-.61.08-.15.2-.29.34-.39.21-.16.47-.25.75-.25h1.67c.45,0,.87.25,1.09.64-.54.38-1.21.61-1.92.61Zm2.55-1.18c-.38-.55-1.02-.9-1.71-.9h-1.67c-.7,0-1.33.34-1.71.9-.49-.58-.79-1.33-.79-2.15,0-1.84,1.5-3.33,3.33-3.33s3.33,1.5,3.33,3.33c0,.82-.3,1.57-.79,2.15Zm-2.55-1.32c-.92,0-1.67-.75-1.67-1.67s.75-1.67,1.67-1.67,1.67.75,1.67,1.67-.75,1.67-1.67,1.67Zm0-2.5c-.46,0-.83.37-.83.83s.37.83.83.83.83-.37.83-.83-.37-.83-.83-.83Z"/><path class="h" d="m50,180h10v10h-10v-10Z"/><path class="g" d="m55,188.77c-.16,0-.33-.01-.49-.03-.95-.12-1.81-.61-2.4-1.33v.93c0,.23-.19.42-.42.42s-.42-.19-.42-.42v-2.08c0-.23.19-.42.42-.42h.2s.01,0,.02,0h1.87c.23,0,.42.19.42.42s-.19.42-.42.42h-1.18c.46.67,1.2,1.13,2.03,1.24.77.1,1.54-.1,2.16-.58.62-.47,1.01-1.16,1.12-1.93s-.1-1.54-.58-2.16c-.47-.62-1.16-1.01-1.93-1.12-1.59-.21-3.06.92-3.27,2.51-.03.23-.24.39-.47.36-.23-.03-.39-.24-.36-.47.27-2.05,2.16-3.5,4.21-3.23.99.13,1.88.64,2.49,1.43.61.79.87,1.78.74,2.77s-.64,1.88-1.43,2.49c-.66.51-1.46.78-2.28.78Z"/><path class="h" d="m50,170h10v10h-10v-10Z"/><path class="g" d="m58.33,175c-.2,0-.38-.15-.41-.36-.11-.78-.52-1.48-1.15-1.95-.63-.48-1.41-.68-2.19-.57-.81.11-1.54.56-2,1.22h.75c.23,0,.42.19.42.42s-.19.42-.42.42h-1.67c-.23,0-.42-.19-.42-.42v-1.67c0-.23.19-.42.42-.42s.42.19.42.42v.53c.6-.71,1.44-1.19,2.39-1.32,1-.14,2,.12,2.81.73.81.61,1.33,1.5,1.47,2.5.03.23-.13.44-.36.47-.02,0-.04,0-.06,0Zm-2.8,3.71c.94-.13,1.79-.61,2.39-1.32v.53c0,.23.19.42.42.42s.42-.19.42-.42v-1.67c0-.23-.19-.42-.42-.42h-.2s-.01,0-.02,0h-1.45c-.23,0-.42.19-.42.42s.19.42.42.42h.75c-.47.65-1.19,1.1-2,1.22-.78.11-1.56-.09-2.19-.57s-1.04-1.17-1.15-1.95c-.03-.23-.24-.39-.47-.36-.23.03-.39.24-.36.47.14,1,.66,1.89,1.47,2.5.67.5,1.46.77,2.28.77.18,0,.35-.01.53-.04Z"/><path class="h" d="m50,170h10v-10h-10v10Z"/><path class="g" d="m59.04,168.46l-2.25-2.25c.44-.56.7-1.27.7-2.04,0-1.84-1.5-3.33-3.33-3.33s-3.33,1.5-3.33,3.33,1.5,3.33,3.33,3.33c.77,0,1.48-.26,2.04-.7l2.25,2.25c.08.08.19.12.29.12s.21-.04.3-.12c.16-.16.16-.43,0-.59Zm-4.88-1.79c-1.38,0-2.5-1.12-2.5-2.5s1.12-2.5,2.5-2.5,2.5,1.12,2.5,2.5-1.12,2.5-2.5,2.5Z"/><path class="h" d="m50,190h10v10h-10v-10Z"/><path class="g" d="m59.04,194.7l-3.75-3.75c-.16-.16-.42-.16-.59,0l-3.75,3.75c-.12.12-.15.3-.09.45.07.16.22.26.39.26h.42v2.5c0,.69.56,1.25,1.25,1.25h4.17c.69,0,1.25-.56,1.25-1.25v-2.5h.42c.17,0,.32-.1.38-.26.07-.15.03-.33-.09-.45Zm-4.88,3.63v-2.08c0-.23.19-.42.42-.42h.83c.23,0,.42.19.42.42v2.08h-1.67Zm3.59-3.72s-.01,0-.02,0c-.02,0-.03.02-.05.02,0,0-.01,0-.02.01-.02.01-.04.03-.06.05-.02.02-.04.04-.05.06-.01.02-.02.04-.03.06,0,0,0,.01,0,.02,0,.02-.01.04-.02.06,0,.03,0,.05,0,.08v2.92c0,.23-.19.42-.42.42h-.42v-2.08c0-.69-.56-1.25-1.25-1.25h-.83c-.69,0-1.25.56-1.25,1.25v2.08h-.42c-.23,0-.42-.19-.42-.42v-2.92s0-.06,0-.08c0-.02-.01-.04-.02-.06,0,0,0-.02,0-.02,0-.02-.02-.03-.02-.05,0,0,0-.02-.02-.02-.01-.02-.03-.04-.05-.05-.02-.02-.04-.03-.06-.05,0,0,0,0-.02-.01-.02,0-.03-.02-.05-.02,0,0-.01,0-.02,0,0,0,0,0-.01,0l2.77-2.77,2.77,2.77s0,0-.01,0Z"/><path class="g" d="m55.02,158.65c-1.05,0-2.07-.46-2.78-1.3-1.3-1.54-1.1-3.84.43-5.14.98-.83,2.29-1.08,3.51-.67.22.07.34.31.26.53-.07.22-.31.34-.53.26-.94-.31-1.95-.12-2.71.52-1.18,1-1.33,2.78-.33,3.96.75.89,1.94,1.22,3.04.85.22-.07.45.04.53.26.07.22-.04.45-.26.53-.38.13-.78.19-1.17.19Zm3.72-3.73c-.02-.08-.05-.15-.11-.21l-1.47-1.47c-.16-.16-.42-.16-.59,0-.16.16-.16.42,0,.59l.76.76h-2.32c-.23,0-.42.19-.42.42s.19.42.42.42h2.32l-.76.76c-.16.16-.16.43,0,.59.08.08.19.12.3.12s.21-.04.29-.12l1.47-1.47c.06-.06.1-.13.11-.21,0-.03,0-.05,0-.08s0-.06,0-.08Z"/><rect class="h" x="50" y="150" width="10" height="10"/><path class="h" d="m50,100h10v10h-10v-10Z"/><path class="g" d="m57.5,101.67h-.42v-.42c0-.23-.19-.42-.42-.42s-.42.19-.42.42v.42h-2.5v-.42c0-.23-.19-.42-.42-.42s-.42.19-.42.42v.42h-.42c-.69,0-1.25.56-1.25,1.25v5c0,.69.56,1.25,1.25,1.25h5c.69,0,1.25-.56,1.25-1.25v-5c0-.69-.56-1.25-1.25-1.25Zm.42,6.25c0,.23-.19.42-.42.42h-5c-.23,0-.42-.19-.42-.42v-2.92h5.83v2.92Zm0-3.75h-5.83v-1.25c0-.23.19-.42.42-.42h.42v.42c0,.23.19.42.42.42s.42-.19.42-.42v-.42h2.5v.42c0,.23.19.42.42.42s.42-.19.42-.42v-.42h.42c.23,0,.42.19.42.42v1.25Zm-3.75,3.33h-.83c-.23,0-.42-.19-.42-.42v-.83c0-.23.19-.42.42-.42h.83c.23,0,.42.19.42.42v.83c0,.23-.19.42-.42.42Z"/><path class="h" d="m50,150h10v-10h-10v10Z"/><path class="g" d="m57.05,149.11h-5c-.69,0-1.25-.56-1.25-1.25v-5c0-.69.56-1.25,1.25-1.25h2.68c.23,0,.42.19.42.42s-.19.42-.42.42h-2.68c-.23,0-.42.19-.42.42v5c0,.23.19.42.42.42h5c.23,0,.42-.19.42-.42v-2.55c0-.23.19-.42.42-.42s.42.19.42.42v2.55c0,.69-.56,1.25-1.25,1.25Zm2.14-6.62c-.02-.08-.06-.15-.11-.21h0s-1.27-1.27-1.27-1.27c-.16-.16-.43-.16-.59,0-.16.16-.16.43,0,.59l.56.56c-2.13.03-3.86,1.77-3.86,3.91,0,.23.19.42.42.42s.42-.19.42-.42c0-1.68,1.35-3.05,3.02-3.08l-.56.56c-.16.16-.16.42,0,.59.08.08.19.12.29.12s.21-.04.3-.12l1.27-1.27h0c.06-.06.1-.13.11-.21,0-.03,0-.05,0-.08s0-.06,0-.08Z"/><path class="h" d="m50,140h10v-10h-10v10Z"/><path class="g" d="m58.32,133.75c-.23,0-.42-.19-.42-.42v-1.25h-1.25c-.23,0-.42-.19-.42-.42s.19-.42.42-.42h1.67c.23,0,.42.19.42.42v1.67c0,.23-.19.42-.42.42Zm-4.19,2.78l3.32-3.32c.16-.16.16-.43,0-.59s-.43-.16-.59,0l-3.32,3.32c-.16.16-.16.43,0,.59.08.08.19.12.29.12s.21-.04.29-.12Zm4.62.97v-1.72c0-.23-.19-.42-.42-.42s-.42.19-.42.42v1.72c0,.23-.19.42-.42.42h-5c-.23,0-.42-.19-.42-.42v-5c0-.23.19-.42.42-.42h1.85c.23,0,.42-.19.42-.42s-.19-.42-.42-.42h-1.85c-.69,0-1.25.56-1.25,1.25v5c0,.69.56,1.25,1.25,1.25h5c.69,0,1.25-.56,1.25-1.25Z"/><path class="h" d="m60,120h-10s0,10,0,10h10s0-10,0-10Z"/><path class="g" d="m54.68,126.25c-.11,0-.21-.04-.29-.12-.16-.16-.16-.43,0-.59l.54-.54-.54-.54c-.16-.16-.16-.43,0-.59s.43-.16.59,0l.83.83c.16.16.16.43,0,.59l-.83.83c-.08.08-.19.12-.29.12Zm4.48-1.25c0-2.3-1.87-4.17-4.17-4.17s-4.17,1.87-4.17,4.17,1.87,4.17,4.17,4.17,4.17-1.87,4.17-4.17Zm-.83,0c0,1.84-1.5,3.33-3.33,3.33s-3.33-1.5-3.33-3.33,1.5-3.33,3.33-3.33,3.33,1.5,3.33,3.33Z"/><path class="h" d="m50,120h10v-10h-10v10Z"/><path class="g" d="m55.32,116.25c-.11,0-.21-.04-.29-.12l-.83-.83c-.16-.16-.16-.43,0-.59l.83-.83c.16-.16.43-.16.59,0s.16.43,0,.59l-.54.54.54.54c.16.16.16.43,0,.59-.08.08-.19.12-.29.12Zm3.85-1.25c0-2.3-1.87-4.17-4.17-4.17s-4.17,1.87-4.17,4.17,1.87,4.17,4.17,4.17,4.17-1.87,4.17-4.17Zm-.83,0c0,1.84-1.5,3.33-3.33,3.33s-3.33-1.5-3.33-3.33,1.5-3.33,3.33-3.33,3.33,1.5,3.33,3.33Z"/><path class="h" d="m50,90h10v10h-10v-10Z"/><path class="g" d="m55,98.75c-1.84,0-3.33-1.5-3.33-3.33s1.5-3.33,3.33-3.33,3.33,1.5,3.33,3.33-1.5,3.33-3.33,3.33Zm0-5.83c-1.38,0-2.5,1.12-2.5,2.5s1.12,2.5,2.5,2.5,2.5-1.12,2.5-2.5-1.12-2.5-2.5-2.5Zm1.25,2.5c0-.23-.19-.42-.42-.42h-.42v-.83c0-.23-.19-.42-.42-.42s-.42.19-.42.42v1.25c0,.23.19.42.42.42h.83c.23,0,.42-.19.42-.42Zm-4.23-2.58l1.15-.83c.19-.14.23-.4.09-.58-.14-.19-.4-.23-.58-.09l-1.15.83c-.19.14-.23.4-.09.58.08.11.21.17.34.17.08,0,.17-.03.24-.08Zm6.55-.09c.14-.19.09-.45-.09-.58l-1.15-.83c-.19-.14-.45-.09-.58.09-.14.19-.09.45.09.58l1.15.83c.07.05.16.08.24.08.13,0,.26-.06.34-.17Z"/><path class="h" d="m50,80h10v10h-10v-10Z"/><path class="g" d="m58.54,86.72c-.34-.19-.57-.53-.62-.92v-1.24c-.05-1.15-.7-2.19-1.7-2.75-.12-.56-.62-.98-1.22-.98s-1.1.42-1.22.98c-1,.56-1.64,1.6-1.7,2.77v1.23c-.05.38-.29.72-.62.91-.17.09-.25.29-.2.47.05.18.21.31.4.31h1.67c0,.92.75,1.67,1.67,1.67s1.67-.75,1.67-1.67h1.67c.19,0,.36-.13.4-.31.05-.18-.03-.38-.2-.47Zm-3.54,1.61c-.46,0-.83-.37-.83-.83h1.67c0,.46-.37.83-.83.83Zm-2.35-1.67c.14-.24.23-.5.26-.78,0-.02,0-.03,0-.05v-1.23c.04-.93.59-1.75,1.43-2.14.15-.07.24-.22.24-.38,0-.23.19-.42.42-.42s.42.19.42.42c0,.16.09.31.24.38.84.4,1.39,1.22,1.43,2.12v1.25s0,.03,0,.05c.03.28.12.54.26.78h-4.69Zm6.1-3.45c-.16,0-.31-.09-.38-.24-.25-.54-.61-1.02-1.06-1.41-.17-.15-.19-.41-.04-.59.15-.17.41-.19.59-.04.54.47.97,1.04,1.27,1.69.1.21,0,.46-.21.55-.06.03-.12.04-.17.04Zm-7.5,0c-.06,0-.12-.01-.17-.04-.21-.1-.3-.34-.2-.55.3-.65.73-1.22,1.27-1.69.17-.15.44-.13.59.04.15.17.13.44-.04.59-.45.39-.81.87-1.06,1.41-.07.15-.22.24-.38.24Z"/><path class="h" d="m50,70h10v10h-10v-10Z"/><path class="g" d="m58.33,72.5h-1.67v-.83c0-.46-.37-.83-.83-.83h-1.67c-.46,0-.83.37-.83.83v.83h-1.67c-.23,0-.42.19-.42.42s.19.42.42.42h.03l.38,4.58c0,.69.56,1.25,1.25,1.25h3.33c.69,0,1.25-.56,1.25-1.22l.39-4.62h.03c.23,0,.42-.19.42-.42s-.19-.42-.42-.42Zm-4.17-.83h1.67v.83h-1.67v-.83Zm2.92,6.25c0,.23-.19.42-.42.42h-3.33c-.23,0-.42-.19-.42-.45l-.38-4.55h4.93l-.38,4.58Zm-2.92-.42c-.23,0-.42-.19-.42-.42v-2.5c0-.23.19-.42.42-.42s.42.19.42.42v2.5c0,.23-.19.42-.42.42Zm1.67,0c-.23,0-.42-.19-.42-.42v-2.5c0-.23.19-.42.42-.42s.42.19.42.42v2.5c0,.23-.19.42-.42.42Z"/><path class="h" d="m50,60h10v10h-10v-10Z"/><path class="g" d="m56.25,68.75h-3.75c-.69,0-1.25-.56-1.25-1.25v-3.75c0-.69.56-1.25,1.25-1.25h.42c.23,0,.42.19.42.42s-.19.42-.42.42h-.42c-.23,0-.42.19-.42.42v3.75c0,.23.19.42.42.42h3.75c.23,0,.42-.19.42-.42v-.42c0-.23.19-.42.42-.42s.42.19.42.42v.42c0,.69-.56,1.25-1.25,1.25Zm2.92-6.62c0,.34-.13.67-.38.91l-.52.52-.12.12h0l-2.85,2.86c-.08.08-.18.12-.3.12h-1.25c-.23,0-.42-.19-.42-.42v-1.25c0-.11.04-.22.12-.3l2.86-2.85s0,0,0,0l.12-.12.52-.52c.49-.49,1.34-.49,1.82,0,.25.24.38.57.38.91Zm-1.84,1.2l-.65-.65-2.5,2.5v.66h.66l2.5-2.5Zm1.01-1.2c0-.12-.05-.24-.13-.32-.17-.17-.48-.17-.65,0l-.29.29.65.65.29-.29h0c.09-.09.13-.2.13-.32Zm-1.96-.34s-.04.04-.05.06l.12-.12s-.05.03-.07.05Zm1.77,1.89s.04-.03.06-.05c.02-.02.04-.04.05-.07l-.12.12Z"/><path class="h" d="m50,50h10v10h-10v-10Z"/><path class="g" d="m55,50.83c-2.3,0-4.17,1.87-4.17,4.17s1.87,4.17,4.17,4.17,4.17-1.87,4.17-4.17-1.87-4.17-4.17-4.17Zm0,7.5c-1.84,0-3.33-1.5-3.33-3.33s1.5-3.33,3.33-3.33,3.33,1.5,3.33,3.33-1.5,3.33-3.33,3.33Zm1.67-3.33c0,.23-.19.42-.42.42h-.83v.83c0,.23-.19.42-.42.42s-.42-.19-.42-.42v-.83h-.83c-.23,0-.42-.19-.42-.42s.19-.42.42-.42h.83v-.83c0-.23.19-.42.42-.42s.42.19.42.42v.83h.83c.23,0,.42.19.42.42Z"/><path class="h" d="m50,0h10v10h-10V0Z"/><path class="g" d="m55,9.17c-2.3,0-4.17-1.87-4.17-4.17s1.87-4.17,4.17-4.17,4.17,1.87,4.17,4.17-1.87,4.17-4.17,4.17Zm0-7.5c-1.84,0-3.33,1.5-3.33,3.33s1.5,3.33,3.33,3.33,3.33-1.5,3.33-3.33-1.5-3.33-3.33-3.33Zm.42,3.33v-1.67c0-.23-.19-.42-.42-.42s-.42.19-.42.42v1.67c0,.23.19.42.42.42s.42-.19.42-.42Zm0,1.67c0-.23-.19-.42-.42-.42h0c-.23,0-.41.19-.41.42s.19.42.42.42.42-.19.42-.42Z"/><path class="h" d="m50,50h10v-10h-10v10Z"/><path class="g" d="m56.88,41.28c-1.17-.59-2.58-.59-3.75,0-.21.1-.29.35-.18.56.1.2.35.29.56.18.94-.47,2.06-.47,3,0,1.64.83,2.3,2.84,1.48,4.48-.1.21-.02.46.18.56.06.03.12.05.19.05.15,0,.3-.08.37-.23,1.03-2.05.2-4.56-1.85-5.6Zm1.07,6.67h0s.02-.03.03-.04c0,.01-.02.03-.03.04Zm.1-.42s0-.02-.01-.03c0-.01-.01-.03-.02-.04,0-.01-.01-.02-.02-.04-.01-.02-.03-.04-.05-.06h0s-5.28-5.29-5.28-5.29c0,0,0,0-.01,0,0,0,0,0,0,0-.16-.17-.42-.17-.59,0-.79.78-1.24,1.82-1.25,2.94,0,1.11.42,2.16,1.2,2.96.82.83,1.89,1.24,2.97,1.24s2.11-.4,2.92-1.19l.05-.05s.02-.03.03-.04c.02-.03.04-.06.06-.1,0-.02.01-.04.02-.05,0-.03.01-.07.01-.1,0-.04,0-.08-.02-.12Zm-5.45-.17c-.62-.63-.96-1.47-.96-2.37,0-.75.26-1.46.72-2.04l4.68,4.68c-1.32,1.04-3.24.95-4.45-.28Z"/><path class="h" d="m50,40h10v-10h-10v10Z"/><path class="g" d="m55,39.17c-2.3,0-4.17-1.87-4.17-4.17s1.87-4.17,4.17-4.17,4.17,1.87,4.17,4.17-1.87,4.17-4.17,4.17Zm0-7.5c-1.84,0-3.33,1.5-3.33,3.33s1.5,3.33,3.33,3.33,3.33-1.5,3.33-3.33-1.5-3.33-3.33-3.33Zm-.12,4.46l1.67-1.67c.16-.16.16-.43,0-.59s-.43-.16-.59,0l-1.37,1.37-.54-.54c-.16-.16-.43-.16-.59,0s-.16.43,0,.59l.83.83c.08.08.19.12.29.12s.21-.04.29-.12Z"/><path class="h" d="m50,20h10v10h-10v-10Z"/><path class="g" d="m55,29.17c-2.3,0-4.17-1.87-4.17-4.17s1.87-4.17,4.17-4.17,4.17,1.87,4.17,4.17-1.87,4.17-4.17,4.17Zm0-7.5c-1.84,0-3.33,1.5-3.33,3.33s1.5,3.33,3.33,3.33,3.33-1.5,3.33-3.33-1.5-3.33-3.33-3.33Zm1.13,4.46c.16-.16.16-.43,0-.59l-.54-.54.54-.54c.16-.16.16-.43,0-.59s-.43-.16-.59,0l-.54.54-.54-.54c-.16-.16-.43-.16-.59,0s-.16.43,0,.59l.54.54-.54.54c-.16.16-.16.43,0,.59s.43.16.59,0l.54-.54.54.54c.08.08.19.12.29.12s.21-.04.29-.12Z"/><path class="h" d="m50,10h10v10h-10v-10Z"/><path class="g" d="m55,19.17c-2.3,0-4.17-1.87-4.17-4.17s1.87-4.17,4.17-4.17,4.17,1.87,4.17,4.17-1.87,4.17-4.17,4.17Zm0-7.5c-1.84,0-3.33,1.5-3.33,3.33s1.5,3.33,3.33,3.33,3.33-1.5,3.33-3.33-1.5-3.33-3.33-3.33Zm.42,5.42h0c0-.23-.19-.42-.42-.42s-.42.19-.42.42.19.42.42.42.42-.19.42-.42Zm-.39-1.05c.23-.01.41-.21.39-.44,0-.09.05-.18.15-.21.77-.3,1.16-1.16.87-1.94-.14-.37-.42-.67-.79-.83-.37-.16-.77-.17-1.15-.03-.26.1-.49.27-.66.49-.14.18-.1.44.08.58.18.14.44.1.58-.08.08-.1.18-.17.29-.22.17-.06.35-.06.51.01.16.07.29.2.35.37.13.34-.04.73-.37.86-.43.15-.72.58-.69,1.04.01.22.2.39.42.39,0,0,.02,0,.02,0Z"/></svg>